<svg xmlns="http://www.w3.org/2000/svg" width="40.177" height="40.498" viewBox="0 0 40.177 40.498">
  <g id="Grupo_29060" data-name="Grupo 29060" transform="translate(0.25 0.25)">
    <path id="Trazado_10357" data-name="Trazado 10357" d="M331.94,4295.615a13.9,13.9,0,1,0,13.9,13.9,13.917,13.917,0,0,0-13.9-13.9Zm-4.324,2.344a12.848,12.848,0,0,0-2.208,3.951h-3.178a12.394,12.394,0,0,1,5.386-3.951Zm-6.431,5.513h3.731a23.128,23.128,0,0,0-.744,5.262h-4.547a12.25,12.25,0,0,1,1.559-5.262Zm-1.559,6.826h4.547a23.423,23.423,0,0,0,.631,4.819h-3.858a12.259,12.259,0,0,1-1.32-4.819Zm2.271,6.381h3.354a13.218,13.218,0,0,0,2.363,4.394,12.4,12.4,0,0,1-5.718-4.394Zm9.261,5a6.067,6.067,0,0,1-3.479-3.292,13.9,13.9,0,0,1-.767-1.706h4.246Zm0-6.56h-4.741a21.572,21.572,0,0,1-.682-4.819h5.423Zm0-6.382h-5.423a21.242,21.242,0,0,1,.806-5.262h4.617Zm0-6.825h-4.072a13.448,13.448,0,0,1,.593-1.262,6.068,6.068,0,0,1,3.479-3.292Zm11.535,1.563a12.249,12.249,0,0,1,1.559,5.262h-4.547a23.126,23.126,0,0,0-.744-5.262Zm-1.045-1.562h-3.178a12.867,12.867,0,0,0-2.208-3.951,12.4,12.4,0,0,1,5.385,3.951Zm-8.929-4.555a6.068,6.068,0,0,1,3.479,3.292,13.44,13.44,0,0,1,.593,1.262H332.72Zm0,6.117h4.617a21.242,21.242,0,0,1,.806,5.262H332.72Zm0,6.826h5.423a21.572,21.572,0,0,1-.682,4.819H332.72Zm0,11.379v-5h4.246a13.768,13.768,0,0,1-.767,1.706,6.067,6.067,0,0,1-3.479,3.292Zm3.542-.6a13.2,13.2,0,0,0,2.364-4.394h3.354a12.4,12.4,0,0,1-5.719,4.394Zm2.812-5.956a23.488,23.488,0,0,0,.631-4.819h4.547a12.26,12.26,0,0,1-1.32,4.819Zm0,0" transform="translate(-311.756 -4289.69)" fill="#f9a71e" stroke="#f9a71e" stroke-width="0.5"/>
    <path id="Trazado_10358" data-name="Trazado 10358" d="M349.733,4289.308a3.416,3.416,0,1,0,3.416,3.416,3.421,3.421,0,0,0-3.416-3.416Zm0,5.27a1.853,1.853,0,1,1,1.853-1.854,1.855,1.855,0,0,1-1.853,1.854Zm0,0" transform="translate(-313.471 -4289.308)" fill="#f9a71e" stroke="#f9a71e" stroke-width="0.5"/>
    <path id="Trazado_10359" data-name="Trazado 10359" d="M314.767,4289.308a3.416,3.416,0,1,0,3.417,3.416,3.42,3.42,0,0,0-3.417-3.416Zm0,5.27a1.853,1.853,0,1,1,1.853-1.854,1.855,1.855,0,0,1-1.853,1.854Zm0,0" transform="translate(-311.351 -4289.308)" fill="#f9a71e" stroke="#f9a71e" stroke-width="0.5"/>
    <path id="Trazado_10360" data-name="Trazado 10360" d="M349.733,4324.614a3.416,3.416,0,1,0,3.416,3.416,3.42,3.42,0,0,0-3.416-3.416Zm0,5.269a1.854,1.854,0,1,1,1.853-1.854,1.856,1.856,0,0,1-1.853,1.854Zm0,0" transform="translate(-313.471 -4291.449)" fill="#f9a71e" stroke="#f9a71e" stroke-width="0.5"/>
    <path id="Trazado_10361" data-name="Trazado 10361" d="M314.767,4324.614a3.416,3.416,0,1,0,3.417,3.416,3.419,3.419,0,0,0-3.417-3.416Zm0,5.269a1.854,1.854,0,1,1,1.853-1.854,1.856,1.856,0,0,1-1.853,1.854Zm0,0" transform="translate(-311.351 -4291.449)" fill="#f9a71e" stroke="#f9a71e" stroke-width="0.5"/>
    <path id="Trazado_10362" data-name="Trazado 10362" d="M320.4,4297.665a.781.781,0,1,1-.781-.781.781.781,0,0,1,.781.781Zm0,0" transform="translate(-311.805 -4289.768)" fill="#f9a71e" stroke="#f9a71e" stroke-width="0.5"/>
    <path id="Trazado_10363" data-name="Trazado 10363" d="M320.327,4323.3a.782.782,0,1,1-.782-.781.782.782,0,0,1,.782.781Zm0,0" transform="translate(-311.8 -4291.322)" fill="#f9a71e" stroke="#f9a71e" stroke-width="0.5"/>
    <path id="Trazado_10364" data-name="Trazado 10364" d="M346.3,4323.414a.781.781,0,1,1-.782-.782.78.78,0,0,1,.782.782Zm0,0" transform="translate(-313.375 -4291.329)" fill="#f9a71e" stroke="#f9a71e" stroke-width="0.5"/>
    <path id="Trazado_10365" data-name="Trazado 10365" d="M346.3,4297.665a.781.781,0,1,1-.782-.781.781.781,0,0,1,.782.781Zm0,0" transform="translate(-313.375 -4289.768)" fill="#f9a71e" stroke="#f9a71e" stroke-width="0.5"/>
  </g>
</svg>
