<svg xmlns="http://www.w3.org/2000/svg" xmlns:xlink="http://www.w3.org/1999/xlink" width="105" height="105" viewBox="0 0 105 105">
  <defs>
    <filter id="Elipse_1213" x="0" y="0" width="105" height="105" filterUnits="userSpaceOnUse">
      <feOffset dy="3" input="SourceAlpha"/>
      <feGaussianBlur stdDeviation="3" result="blur"/>
      <feFlood flood-opacity="0.161"/>
      <feComposite operator="in" in2="blur"/>
      <feComposite in="SourceGraphic"/>
    </filter>
  </defs>
  <g id="Grupo_29133" data-name="Grupo 29133" transform="translate(-370.699 -1832)">
    <g transform="matrix(1, 0, 0, 1, 370.7, 1832)" filter="url(#Elipse_1213)">
      <circle id="Elipse_1213-2" data-name="Elipse 1213" cx="43.5" cy="43.5" r="43.5" transform="translate(9 6)" fill="#f9a71e"/>
    </g>
    <g id="Grupo_28975" data-name="Grupo 28975" transform="translate(393.684 1853.227)">
      <path id="Trazado_10202" data-name="Trazado 10202" d="M790.769,4090.552a1.016,1.016,0,1,1-1.016-1.017,1.016,1.016,0,0,1,1.016,1.017Zm0,0" transform="translate(-781.767 -4049.228)" fill="#fff"/>
      <path id="Trazado_10203" data-name="Trazado 10203" d="M838.827,4075.587a1.016,1.016,0,1,1-1.016-1.015,1.016,1.016,0,0,1,1.016,1.015Zm0,0" transform="translate(-790.912 -4046.381)" fill="#fff"/>
      <g id="Grupo_28974" data-name="Grupo 28974" transform="translate(-0.001 0)">
        <path id="Trazado_10204" data-name="Trazado 10204" d="M822.47,4064.848h-1.56a.9.9,0,0,1-.894-.895v-.908a.9.9,0,0,1,.894-.894h1.729a.727.727,0,0,1,.726.726,1.016,1.016,0,0,0,2.032,0,2.761,2.761,0,0,0-2.691-2.757v-.872a1.016,1.016,0,1,0-2.032,0v.881a2.93,2.93,0,0,0-2.691,2.916v.908a2.93,2.93,0,0,0,2.927,2.926h1.56a.9.9,0,0,1,.895.895v.908a.9.9,0,0,1-.895.894h-1.729a.727.727,0,0,1-.725-.726,1.016,1.016,0,0,0-2.032,0,2.761,2.761,0,0,0,2.691,2.756v.872a1.016,1.016,0,0,0,2.032,0v-.881a2.931,2.931,0,0,0,2.691-2.916v-.908a2.93,2.93,0,0,0-2.927-2.926Zm0,0" transform="translate(-787.331 -4043.272)" fill="#fff"/>
        <path id="Trazado_10205" data-name="Trazado 10205" d="M830.025,4074.2a3.875,3.875,0,0,0-5.111-1.98l-.015.006-6.4,2.951a1.016,1.016,0,1,0,.851,1.845l6.393-2.947a1.843,1.843,0,0,1,1.482,3.375l-13.1,5.783a7.555,7.555,0,0,1-6.431-.146l-4.794-2.381a9.583,9.583,0,0,0-8.157-.185l-.061.027-3.554-8.048,4.942-2.181a9.866,9.866,0,0,1,7.418-.237l9.641,3.541a1.7,1.7,0,0,1-1.131,3.208l-7.456-2.52a1.016,1.016,0,1,0-.651,1.925l7.456,2.521a3.733,3.733,0,0,0,2.483-7.041l-9.642-3.54a12.033,12.033,0,0,0-1.977-.541v-5.617a10.056,10.056,0,0,1,10.044-10.044h3.712a10.056,10.056,0,0,1,10.044,10.044v2.649a1.016,1.016,0,0,0,2.032,0v-2.649a12.1,12.1,0,0,0-9.755-11.851v-3.061l2.567-4.392a1.016,1.016,0,0,0-.457-1.438l-3.149-1.431a1.016,1.016,0,0,0-.764-.031l-2.336.841-2.073-.828a1.014,1.014,0,0,0-.742,0l-3.3,1.271a1.017,1.017,0,0,0-.522,1.44l2.527,4.56v3.052a12.1,12.1,0,0,0-9.863,11.872v5.422a11.927,11.927,0,0,0-4.931,1.021l-4.977,2.2a2.514,2.514,0,0,0-3.1-.9l-6.431,2.818a1.015,1.015,0,0,0-.609.93v17.258a1.017,1.017,0,0,0,1.016,1.016,1.007,1.007,0,0,0,.458-.109l12.485-6.307a2.519,2.519,0,0,0,1.389-2.942l.087-.039a7.555,7.555,0,0,1,6.432.146l4.794,2.382a9.584,9.584,0,0,0,8.157.185l13.1-5.783a3.876,3.876,0,0,0,1.981-5.11Zm-13.769-24.26h-4.18v-2.095h4.18Zm-6.4-7.372,1.834-.708,2.06.823a1.011,1.011,0,0,0,.721.012l2.311-.832,1.748.794-1.844,3.154h-5.032Zm-16.619,40.945-.048.023-11.031,5.573v-4.118l2.857-1.4a1.016,1.016,0,0,0-.9-1.824l-1.961.963v-8.56l5.825-2.553a.485.485,0,0,1,.641.249l.232.527h0l4.628,10.481a.487.487,0,0,1-.249.641Zm0,0" transform="translate(-780.128 -4039.756)" fill="#fff"/>
      </g>
    </g>
  </g>
</svg>
