<svg xmlns="http://www.w3.org/2000/svg" width="37.205" height="53.833" viewBox="0 0 37.205 53.833">
  <g id="Grupo_29135" data-name="Grupo 29135" transform="translate(-199.445 -3356)">
    <rect id="Line" width="13.177" height="2" transform="translate(199.98 3356)" fill="#3c5185"/>
    <g id="Grupo_29059" data-name="Grupo 29059" transform="translate(199.695 3369.586)">
      <path id="Trazado_10351" data-name="Trazado 10351" d="M103.634,4304.8a.813.813,0,1,1-.813-.814.813.813,0,0,1,.813.814Zm0,0" transform="translate(-87.731 -4291.422)" fill="#3c5185" stroke="#3c5185" stroke-width="0.5"/>
      <g id="Grupo_29058" data-name="Grupo 29058" transform="translate(0 12.565)">
        <path id="Trazado_10352" data-name="Trazado 10352" d="M110.179,4304.8a.813.813,0,1,1-.813-.814.814.814,0,0,1,.813.814Zm0,0" transform="translate(-88.128 -4303.987)" fill="#3c5185" stroke="#3c5185" stroke-width="0.5"/>
        <path id="Trazado_10353" data-name="Trazado 10353" d="M117.848,4319.99c-1.511-.385-2.851-.694-4.434-.948l-1.583-2.4a.781.781,0,0,0-1.238-.085l-5.447,6.167-5.429-5.8a.781.781,0,0,0-1.192.06l-1.558,2.046c-1.626.259-2.991.575-4.528.967a7.49,7.49,0,0,0-5.629,7.268v1.823a3.077,3.077,0,0,0,3.074,3.074h30.558a3.077,3.077,0,0,0,3.074-3.074v-1.822a7.511,7.511,0,0,0-5.667-7.278Zm-6.759-1.63,1.146,1.731-2.841,5.641-3.049-2Zm-11.881.309,4.741,5.067-3.116,1.982-2.555-5.827Zm2.547,11.933H89.884a1.512,1.512,0,0,1-1.511-1.511v-1.823a5.927,5.927,0,0,1,4.453-5.753c1.393-.356,2.638-.646,4.068-.887l2.874,6.553a.781.781,0,0,0,1.135.346l1.52-.967Zm1.584,0,.855-5.169.963-.612,1.007.661,1.151,5.121Zm17.1,0H108.915l-.874-3.888,1.228.806a.781.781,0,0,0,1.127-.3l3.3-6.544c1.307.229,2.472.5,3.77.832a5.949,5.949,0,0,1,4.49,5.764v1.822a1.512,1.512,0,0,1-1.511,1.511Zm0,0" transform="translate(-86.81 -4304.732)" fill="#3c5185" stroke="#3c5185" stroke-width="0.5"/>
      </g>
      <path id="Trazado_10354" data-name="Trazado 10354" d="M116.979,4293.533a.782.782,0,0,0-.782.782v1.05a2.89,2.89,0,0,1-2.886,2.887H101.064c-.024,0-.049,0-.072,0l-.073,0a4.46,4.46,0,0,0-4.455,4.455v4.1a9.1,9.1,0,0,0,.067,1.091c-1.588-.683-1.73-2.751-1.73-3.459V4297.1a2.575,2.575,0,0,1,2.572-2.573h.955a.782.782,0,0,0,.782-.782,1.576,1.576,0,0,1,1.574-1.574h12.874a.781.781,0,1,0,0-1.562H100.682a3.143,3.143,0,0,0-3.039,2.356h-.272a4.139,4.139,0,0,0-4.135,4.135v7.336c0,2.846,1.426,4.817,3.681,5.181a8.923,8.923,0,0,0,17.391-2.812V4299.7a4.455,4.455,0,0,0,3.453-4.335v-1.05a.782.782,0,0,0-.782-.782Zm-4.235,13.274a7.359,7.359,0,0,1-14.719,0v-4.1a2.9,2.9,0,0,1,2.892-2.892.615.615,0,0,0,.073,0,.588.588,0,0,0,.072,0h11.681Zm0,0" transform="translate(-87.2 -4290.611)" fill="#3c5185" stroke="#3c5185" stroke-width="0.5"/>
      <path id="Trazado_10355" data-name="Trazado 10355" d="M108.987,4310.157a.783.783,0,0,0-1.106,0,2.472,2.472,0,0,1-3.577-.083.782.782,0,0,0-1.154,1.054,4.035,4.035,0,0,0,5.837.134.782.782,0,0,0,0-1.105Zm0,0" transform="translate(-87.788 -4291.775)" fill="#3c5185" stroke="#3c5185" stroke-width="0.5"/>
      <path id="Trazado_10356" data-name="Trazado 10356" d="M119.243,4291.393a.782.782,0,1,1-.782-.782.782.782,0,0,1,.782.782Zm0,0" transform="translate(-88.682 -4290.611)" fill="#3c5185" stroke="#3c5185" stroke-width="0.5"/>
    </g>
  </g>
</svg>
