<svg xmlns="http://www.w3.org/2000/svg" width="37.319" height="55.833" viewBox="0 0 37.319 55.833">
  <g id="Grupo_29136" data-name="Grupo 29136" transform="translate(-716.75 -3356)">
    <rect id="Line" width="13.177" height="2" transform="translate(717.98 3356)" fill="#172361"/>
    <g id="Grupo_29057" data-name="Grupo 29057" transform="translate(717 3371.586)">
      <path id="Trazado_10348" data-name="Trazado 10348" d="M199.293,4323.257v-1.75a2.923,2.923,0,0,0-2.92-2.92H184.428v-.725a.781.781,0,1,0-1.562,0v.725H170.92a2.923,2.923,0,0,0-2.92,2.92v1.75a3.544,3.544,0,1,0,1.563,0v-1.75a1.359,1.359,0,0,1,1.356-1.357h11.946v3.108a3.544,3.544,0,1,0,1.562,0v-3.107h11.945a1.359,1.359,0,0,1,1.357,1.357v1.75a3.545,3.545,0,1,0,1.562,0Zm-28.529,3.457a1.982,1.982,0,1,1-1.982-1.982,1.985,1.985,0,0,1,1.982,1.982Zm14.865,0a1.982,1.982,0,1,1-1.982-1.982,1.984,1.984,0,0,1,1.982,1.982Zm12.883,1.982a1.982,1.982,0,1,1,1.982-1.982,1.984,1.984,0,0,1-1.982,1.982Zm0,0" transform="translate(-165.238 -4290.262)" fill="#172361" stroke="#172361" stroke-width="0.5"/>
      <path id="Trazado_10349" data-name="Trazado 10349" d="M184.044,4288.531a12.254,12.254,0,0,0-7.69,21.8.805.805,0,0,0,.063.057,12.289,12.289,0,0,0,1.935,1.267v-.009a12.237,12.237,0,0,0,12.523-.68l0,0q.406-.273.793-.582a.811.811,0,0,0,.063-.057,12.254,12.254,0,0,0-7.691-21.8Zm0,22.955a10.64,10.64,0,0,1-6.25-2.021,6.595,6.595,0,0,1,12.5,0,10.638,10.638,0,0,1-6.251,2.021Zm-2.842-10.7a2.621,2.621,0,1,1,2.621,2.622,2.624,2.624,0,0,1-2.621-2.622Zm10.363,7.6a7.932,7.932,0,0,0-2.418-3.212,8.136,8.136,0,0,0-2.468-1.331,4.184,4.184,0,1,0-5.586.113,8.122,8.122,0,0,0-2.151,1.218,7.925,7.925,0,0,0-2.419,3.212,10.7,10.7,0,1,1,15.042,0Zm0,0" transform="translate(-165.635 -4288.531)" fill="#172361" stroke="#172361" stroke-width="0.5"/>
      <path id="Trazado_10350" data-name="Trazado 10350" d="M185.566,4315.8a.781.781,0,1,1-.782-.781.781.781,0,0,1,.782.781Zm0,0" transform="translate(-166.376 -4290.137)" fill="#172361" stroke="#172361" stroke-width="0.5"/>
    </g>
  </g>
</svg>
