<svg xmlns="http://www.w3.org/2000/svg" xmlns:xlink="http://www.w3.org/1999/xlink" width="105" height="105" viewBox="0 0 105 105">
  <defs>
    <filter id="Elipse_1214" x="0" y="0" width="105" height="105" filterUnits="userSpaceOnUse">
      <feOffset dy="3" input="SourceAlpha"/>
      <feGaussianBlur stdDeviation="3" result="blur"/>
      <feFlood flood-opacity="0.161"/>
      <feComposite operator="in" in2="blur"/>
      <feComposite in="SourceGraphic"/>
    </filter>
  </defs>
  <g id="Grupo_29134" data-name="Grupo 29134" transform="translate(-891.699 -1832)">
    <g transform="matrix(1, 0, 0, 1, 891.7, 1832)" filter="url(#Elipse_1214)">
      <circle id="Elipse_1214-2" data-name="Elipse 1214" cx="43.5" cy="43.5" r="43.5" transform="translate(9 6)" fill="#f9a71e"/>
    </g>
    <g id="Grupo_28976" data-name="Grupo 28976" transform="translate(919.971 1853.488)">
      <path id="Trazado_10206" data-name="Trazado 10206" d="M931.04,3987.693a1.016,1.016,0,1,1-1.016-1.016,1.016,1.016,0,0,1,1.016,1.016Zm0,0" transform="translate(-885.932 -3953.339)" fill="#fff"/>
      <path id="Trazado_10207" data-name="Trazado 10207" d="M883.269,3987.693a1.016,1.016,0,1,1-1.016-1.016,1.016,1.016,0,0,1,1.016,1.016Zm0,0" transform="translate(-876.841 -3953.339)" fill="#fff"/>
      <path id="Trazado_10208" data-name="Trazado 10208" d="M925.25,3995.5h-8.725l-.053-24.973a1.016,1.016,0,0,0-1.016-1.014h0a1.015,1.015,0,0,0-1.015,1.018l.053,24.969H911.54l-.026-11.111a1.016,1.016,0,0,0-1.016-1.013h0a1.016,1.016,0,0,0-1.014,1.019l.026,11.106h-2.467v-13.449a5.575,5.575,0,0,0,5.138-5.488v-9.848a11.032,11.032,0,0,0-.967-4.519,8.414,8.414,0,0,1,5.312,2.338,7.875,7.875,0,0,1,2.445,5.688l.019,5.783a1.015,1.015,0,0,0,1.016,1.013h0a1.016,1.016,0,0,0,1.013-1.02l-.019-5.782a9.9,9.9,0,0,0-3.067-7.144,10.4,10.4,0,0,0-3.921-2.382,5.373,5.373,0,0,0-3.7-9.27H910.3a5.411,5.411,0,0,0-2.479.611,1.017,1.017,0,0,0,.943,1.8,3.345,3.345,0,1,1,1.556,6.31.963.963,0,0,0-.129.009l-.163.007a11.563,11.563,0,0,0-5.878-4.206,5.962,5.962,0,1,0-7.668.156,11.543,11.543,0,0,0-5.414,4.045c-.162-.007-.322-.011-.482-.011-.076,0-.152,0-.228,0a.509.509,0,0,0-.055,0,3.344,3.344,0,1,1,1.594-6.285,1.017,1.017,0,0,0,.971-1.786,5.375,5.375,0,0,0-6.1,8.777,10.122,10.122,0,0,0-6.567,9.391V3976a1.016,1.016,0,0,0,2.032,0v-5.763a8.19,8.19,0,0,1,7.635-8.033,11.023,11.023,0,0,0-.964,4.509v9.848a5.58,5.58,0,0,0,5.309,5.5V3995.5h-2.768v-11.109a1.016,1.016,0,0,0-2.032,0V3995.5h-2.5v-24.96a1.017,1.017,0,1,0-2.033,0v24.96h-8.061a1.016,1.016,0,0,0,0,2.032H925.25a1.016,1.016,0,1,0,0-2.032Zm-28.958-44.029a3.93,3.93,0,1,1,3.93,3.929,3.934,3.934,0,0,1-3.93-3.929Zm9.731,14.57a1.016,1.016,0,0,0-1.015,1.016V3995.5h-3.62v-14.139a1.016,1.016,0,0,0-2.032,0V3995.5h-3.105v-28.443a1.017,1.017,0,0,0-2.033,0v12.969a3.54,3.54,0,0,1-3.277-3.463v-9.848a9.03,9.03,0,0,1,1.479-4.951,9.784,9.784,0,0,1,16.254.011,9.031,9.031,0,0,1,1.472,4.94v9.848a3.532,3.532,0,0,1-3.105,3.444v-12.949a1.016,1.016,0,0,0-1.017-1.016Zm0,0" transform="translate(-875.808 -3945.504)" fill="#fff"/>
    </g>
  </g>
</svg>
