<svg xmlns="http://www.w3.org/2000/svg" xmlns:xlink="http://www.w3.org/1999/xlink" width="621.672" height="502.366" viewBox="0 0 621.672 502.366">
  <defs>
    <linearGradient id="linear-gradient" x1="0.5" y1="1" x2="0.5" gradientUnits="objectBoundingBox">
      <stop offset="0.245" stop-color="#98b9e5"/>
      <stop offset="1" stop-color="#63749d"/>
    </linearGradient>
    <linearGradient id="linear-gradient-2" y1="0.5" x2="1" y2="0.5" gradientUnits="objectBoundingBox">
      <stop offset="0" stop-color="#98b9e5"/>
      <stop offset="0.153" stop-color="#96b7e3"/>
      <stop offset="1" stop-color="#63749d"/>
    </linearGradient>
    <filter id="Gestión_de_la_digitalización" x="115.22" y="409.307" width="457.29" height="49.29" filterUnits="userSpaceOnUse">
      <feOffset dx="1.62" dy="1.62" input="SourceAlpha"/>
      <feGaussianBlur stdDeviation="1.215" result="blur"/>
      <feFlood flood-opacity="0.4"/>
      <feComposite operator="in" in2="blur"/>
      <feComposite in="SourceGraphic"/>
    </filter>
    <filter id="Implementación_digital" x="49.764" y="23.347" width="48" height="406" filterUnits="userSpaceOnUse">
      <feOffset dx="1" dy="1" input="SourceAlpha"/>
      <feGaussianBlur stdDeviation="1" result="blur-2"/>
      <feFlood flood-opacity="0.4"/>
      <feComposite operator="in" in2="blur-2"/>
      <feComposite in="SourceGraphic"/>
    </filter>
  </defs>
  <g id="Grupo_29054" data-name="Grupo 29054" transform="translate(-351.149 -3616.572)">
    <rect id="Rectángulo_5019" data-name="Rectángulo 5019" width="437.913" height="306.95" transform="translate(472.996 3685.112)" fill="#fff"/>
    <path id="Trazado_10209" data-name="Trazado 10209" d="M449.055,3657.03,431.518,3636.8l-17.537-20.229L396.444,3636.8l-17.537,20.229h16.328V4056.5h37.491V3657.03Z" fill="url(#linear-gradient)"/>
    <path id="Trazado_10210" data-name="Trazado 10210" d="M932.363,4072.974l20.229-17.537,20.229-17.537-20.229-17.537-20.229-17.537v16.328H395.234v37.491H932.363Z" fill="url(#linear-gradient-2)"/>
    <path id="Trazado_10211" data-name="Trazado 10211" d="M473,3685.112v306.95H910.909" fill="none" stroke="#d1e1f2" stroke-miterlimit="10" stroke-width="1.62"/>
    <g id="Grupo_28977" data-name="Grupo 28977">
      <line id="Línea_114" data-name="Línea 114" y2="306.95" transform="translate(516.784 3685.112)" fill="none" stroke="#d1e1f2" stroke-miterlimit="10" stroke-width="0.81"/>
      <line id="Línea_115" data-name="Línea 115" y2="306.95" transform="translate(604.361 3685.112)" fill="none" stroke="#d1e1f2" stroke-miterlimit="10" stroke-width="0.81"/>
      <line id="Línea_116" data-name="Línea 116" y2="306.95" transform="translate(560.572 3685.112)" fill="none" stroke="#d1e1f2" stroke-miterlimit="10" stroke-width="0.81"/>
      <line id="Línea_117" data-name="Línea 117" y2="306.95" transform="translate(691.937 3685.112)" fill="none" stroke="#d1e1f2" stroke-miterlimit="10" stroke-width="0.81"/>
      <line id="Línea_118" data-name="Línea 118" y2="306.95" transform="translate(648.149 3685.112)" fill="none" stroke="#d1e1f2" stroke-miterlimit="10" stroke-width="0.81"/>
      <line id="Línea_119" data-name="Línea 119" y2="306.95" transform="translate(779.514 3685.112)" fill="none" stroke="#d1e1f2" stroke-miterlimit="10" stroke-width="0.81"/>
      <line id="Línea_120" data-name="Línea 120" y2="306.95" transform="translate(735.726 3685.112)" fill="none" stroke="#d1e1f2" stroke-miterlimit="10" stroke-width="0.81"/>
      <line id="Línea_121" data-name="Línea 121" y2="306.95" transform="translate(867.091 3685.112)" fill="none" stroke="#d1e1f2" stroke-miterlimit="10" stroke-width="0.81"/>
      <line id="Línea_122" data-name="Línea 122" y2="306.95" transform="translate(823.302 3685.112)" fill="none" stroke="#d1e1f2" stroke-miterlimit="10" stroke-width="0.81"/>
      <line id="Línea_123" data-name="Línea 123" y1="306.95" transform="translate(910.879 3685.112)" fill="none" stroke="#d1e1f2" stroke-miterlimit="10" stroke-width="0.81"/>
      <line id="Línea_124" data-name="Línea 124" x2="437.913" transform="translate(472.996 3715.741)" fill="none" stroke="#d1e1f2" stroke-miterlimit="10" stroke-width="0.81"/>
      <line id="Línea_125" data-name="Línea 125" x2="437.913" transform="translate(472.996 3746.37)" fill="none" stroke="#d1e1f2" stroke-miterlimit="10" stroke-width="0.81"/>
      <line id="Línea_126" data-name="Línea 126" x2="437.913" transform="translate(472.996 3776.999)" fill="none" stroke="#d1e1f2" stroke-miterlimit="10" stroke-width="0.81"/>
      <line id="Línea_127" data-name="Línea 127" x2="437.913" transform="translate(472.996 3807.628)" fill="none" stroke="#d1e1f2" stroke-miterlimit="10" stroke-width="0.81"/>
      <line id="Línea_128" data-name="Línea 128" x2="437.913" transform="translate(472.996 3838.257)" fill="none" stroke="#d1e1f2" stroke-miterlimit="10" stroke-width="0.81"/>
      <line id="Línea_129" data-name="Línea 129" x2="437.913" transform="translate(472.996 3868.886)" fill="none" stroke="#d1e1f2" stroke-miterlimit="10" stroke-width="0.81"/>
      <line id="Línea_130" data-name="Línea 130" x2="437.913" transform="translate(472.996 3899.515)" fill="none" stroke="#d1e1f2" stroke-miterlimit="10" stroke-width="0.81"/>
      <line id="Línea_131" data-name="Línea 131" x2="437.913" transform="translate(472.996 3930.144)" fill="none" stroke="#d1e1f2" stroke-miterlimit="10" stroke-width="0.81"/>
      <line id="Línea_132" data-name="Línea 132" x2="437.913" transform="translate(472.996 3960.773)" fill="none" stroke="#d1e1f2" stroke-miterlimit="10" stroke-width="0.81"/>
      <line id="Línea_133" data-name="Línea 133" x2="437.913" transform="translate(472.996 3685.112)" fill="none" stroke="#d1e1f2" stroke-miterlimit="10" stroke-width="0.81"/>
    </g>
    <line id="Línea_134" data-name="Línea 134" y2="290.948" transform="translate(691.937 3697.065)" fill="none" stroke="#3c5185" stroke-linecap="round" stroke-miterlimit="10" stroke-width="2.43"/>
    <line id="Línea_135" data-name="Línea 135" x1="443.261" transform="translate(470.456 3838.587)" fill="none" stroke="#3c5185" stroke-linecap="round" stroke-miterlimit="10" stroke-width="2.43"/>
    <text id="_0" data-name="0" transform="translate(460.921 4000.2)" fill="#3c5185" font-size="12.96" font-family="Roboto-Bold, Roboto" font-weight="700"><tspan x="9.081" y="12">0</tspan></text>
    <text id="_10" data-name="10" transform="translate(503.182 4000.2)" fill="#3c5185" font-size="12.96" font-family="Roboto-Bold, Roboto" font-weight="700"><tspan x="5.363" y="12">10</tspan></text>
    <text id="_0-2" data-name="0" transform="translate(438.744 3983.935)" fill="#3c5185" font-size="12.96" font-family="Roboto-Bold, Roboto" font-weight="700"><tspan x="18.162" y="12">0</tspan></text>
    <text id="_10-2" data-name="10" transform="translate(438.744 3952.345)" fill="#3c5185" font-size="12.96" font-family="Roboto-Bold, Roboto" font-weight="700"><tspan x="10.119" y="12">10</tspan></text>
    <text id="_20" data-name="20" transform="translate(438.744 3923.649)" fill="#3c5185" font-size="12.96" font-family="Roboto-Bold, Roboto" font-weight="700"><tspan x="10.727" y="12">20</tspan></text>
    <text id="_30" data-name="30" transform="translate(438.744 3891.49)" fill="#3c5185" font-size="12.96" font-family="Roboto-Bold, Roboto" font-weight="700"><tspan x="10.727" y="12">30</tspan></text>
    <text id="_40" data-name="40" transform="translate(438.744 3862.794)" fill="#3c5185" font-size="12.96" font-family="Roboto-Bold, Roboto" font-weight="700"><tspan x="10.727" y="12">40</tspan></text>
    <text id="_50" data-name="50" transform="translate(438.744 3829.295)" fill="#3c5185" font-size="12.96" font-family="Roboto-Bold, Roboto" font-weight="700"><tspan x="10.727" y="12">50</tspan></text>
    <text id="_60" data-name="60" transform="translate(438.744 3800.6)" fill="#3c5185" font-size="12.96" font-family="Roboto-Bold, Roboto" font-weight="700"><tspan x="10.727" y="12">60</tspan></text>
    <text id="_70" data-name="70" transform="translate(438.744 3768.258)" fill="#3c5185" font-size="12.96" font-family="Roboto-Bold, Roboto" font-weight="700"><tspan x="10.727" y="12">70</tspan></text>
    <text id="_80" data-name="80" transform="translate(438.744 3739.563)" fill="#3c5185" font-size="12.96" font-family="Roboto-Bold, Roboto" font-weight="700"><tspan x="10.727" y="12">80</tspan></text>
    <text id="_90" data-name="90" transform="translate(438.744 3707.155)" fill="#3c5185" font-size="12.96" font-family="Roboto-Bold, Roboto" font-weight="700"><tspan x="10.727" y="12">90</tspan></text>
    <text id="_100" data-name="100" transform="translate(438.744 3678.46)" fill="#3c5185" font-size="12.96" font-family="Roboto-Bold, Roboto" font-weight="700"><tspan x="3.291" y="12">100</tspan></text>
    <text id="_20_" data-name="20
" transform="translate(547.172 4000.2)" fill="#3c5185" font-size="12.96" font-family="Roboto-Bold, Roboto" font-weight="700"><tspan x="5.363" y="12">20</tspan></text>
    <text id="_30-2" data-name="30" transform="translate(592.193 4000.2)" fill="#3c5185" font-size="12.96" font-family="Roboto-Bold, Roboto" font-weight="700"><tspan x="5.363" y="12">30</tspan></text>
    <text id="_40-2" data-name="40" transform="translate(636.04 4000.2)" fill="#3c5185" font-size="12.96" font-family="Roboto-Bold, Roboto" font-weight="700"><tspan x="5.363" y="12">40</tspan></text>
    <text id="_50-2" data-name="50" transform="translate(679.819 4000.2)" fill="#3c5185" font-size="12.96" font-family="Roboto-Bold, Roboto" font-weight="700"><tspan x="5.363" y="12">50</tspan></text>
    <text id="_60-2" data-name="60" transform="translate(722.828 4000.2)" fill="#3c5185" font-size="12.96" font-family="Roboto-Bold, Roboto" font-weight="700"><tspan x="5.363" y="12">60</tspan></text>
    <text id="_70-2" data-name="70" transform="translate(767.244 4000.2)" fill="#3c5185" font-size="12.96" font-family="Roboto-Bold, Roboto" font-weight="700"><tspan x="5.363" y="12">70</tspan></text>
    <text id="_80-2" data-name="80" transform="translate(809.948 4000.2)" fill="#3c5185" font-size="12.96" font-family="Roboto-Bold, Roboto" font-weight="700"><tspan x="5.363" y="12">80</tspan></text>
    <text id="_90-2" data-name="90" transform="translate(854.147 4000.2)" fill="#3c5185" font-size="12.96" font-family="Roboto-Bold, Roboto" font-weight="700"><tspan x="5.363" y="12">90</tspan></text>
    <text id="_100-2" data-name="100" transform="translate(898.488 4000.2)" fill="#3c5185" font-size="12.96" font-family="Roboto-Bold, Roboto" font-weight="700"><tspan x="1.646" y="12">100</tspan></text>
    <g id="Grupo_28995" data-name="Grupo 28995">
      <g id="Grupo_28994" data-name="Grupo 28994">
        <g id="Grupo_28978" data-name="Grupo 28978">
          <path id="Trazado_10212" data-name="Trazado 10212" d="M497.327,3706.875v-11.752h6.919v2.472h-3.99v1.984H503.6v2.464h-3.344v2.368h4.005v2.464Z"/>
          <path id="Trazado_10213" data-name="Trazado 10213" d="M503.841,3695.528v1.661h-3.99v2.8H503.2v1.653h-3.344v3.178h4.006v1.653h-6.125v-10.941h6.109m.81-.81h-7.729v12.562h7.745v-3.274h-4.006v-1.558h3.344v-3.273h-3.344V3698h3.99v-3.281Z" fill="#fff"/>
        </g>
        <g id="Grupo_28979" data-name="Grupo 28979">
          <path id="Trazado_10214" data-name="Trazado 10214" d="M504.751,3710.159a3.5,3.5,0,0,1-.543-.039c-.156-.024-.331-.06-.524-.109l-.327-.081.147-2.459.477.125c.107.027.2.049.284.065a1.159,1.159,0,0,0,.223.019c.043,0,.1,0,.176-.131a1.65,1.65,0,0,0,.14-.8v-8.814h2.929v8.814a3.67,3.67,0,0,1-.783,2.485A2.775,2.775,0,0,1,504.751,3710.159Zm.008-13.406v-2.411H507.7v2.411Z"/>
          <path id="Trazado_10215" data-name="Trazado 10215" d="M507.291,3694.747v1.6h-2.127v-1.6h2.127m.037,3.592v8.409a3.274,3.274,0,0,1-.684,2.22,2.381,2.381,0,0,1-1.893.786,3.214,3.214,0,0,1-.481-.034c-.145-.023-.308-.056-.489-.1l.1-1.631c.116.031.218.054.308.072a1.637,1.637,0,0,0,.3.026.587.587,0,0,0,.529-.338,2.071,2.071,0,0,0,.192-1v-8.409h2.119m.773-4.4h-3.747v3.221H508.1v-3.221Zm.037,3.592H504.4v9.219a1.9,1.9,0,0,1-.054.516h-.005c-.075-.014-.16-.034-.256-.059l-.954-.251-.06.986-.1,1.63-.04.669.649.165c.207.052.394.09.561.117a4.066,4.066,0,0,0,.608.044,3.168,3.168,0,0,0,2.5-1.063,4.069,4.069,0,0,0,.883-2.753v-9.219Z" fill="#fff"/>
        </g>
        <g id="Grupo_28980" data-name="Grupo 28980">
          <path id="Trazado_10216" data-name="Trazado 10216" d="M511.852,3707.033a3.409,3.409,0,0,1-2.811-1.265,4.866,4.866,0,0,1-.975-3.116v-.308A5.345,5.345,0,0,1,509,3699.1a3.211,3.211,0,0,1,2.727-1.322,3.023,3.023,0,0,1,2.522,1.141,4.656,4.656,0,0,1,.851,2.925v1.561h-4.055a2.057,2.057,0,0,0,.294.805.819.819,0,0,0,.764.354,2.853,2.853,0,0,0,.922-.125,3.835,3.835,0,0,0,.827-.419l.408-.264.844,2.033-.21.192a3.911,3.911,0,0,1-1.31.751A5.012,5.012,0,0,1,511.852,3707.033Zm.356-5.831a1.957,1.957,0,0,0-.158-.759.31.31,0,0,0-.326-.189.447.447,0,0,0-.439.261,2.255,2.255,0,0,0-.221.687Z"/>
          <path id="Trazado_10217" data-name="Trazado 10217" d="M511.724,3698.188a2.626,2.626,0,0,1,2.2.985,4.243,4.243,0,0,1,.767,2.675V3703h-4.1a2.845,2.845,0,0,0,.409,1.435,1.232,1.232,0,0,0,1.1.534,3.257,3.257,0,0,0,1.056-.147,4.235,4.235,0,0,0,.913-.462l.548,1.323a3.485,3.485,0,0,1-1.176.669,4.6,4.6,0,0,1-1.589.271,3.008,3.008,0,0,1-2.495-1.113,4.451,4.451,0,0,1-.887-2.863v-.308a4.935,4.935,0,0,1,.853-3,2.811,2.811,0,0,1,2.4-1.157m-1.119,3.42h2.014v-.188a2.637,2.637,0,0,0-.207-1.158.712.712,0,0,0-.688-.413.85.85,0,0,0-.793.47,3.259,3.259,0,0,0-.326,1.289m1.119-4.23a3.638,3.638,0,0,0-3.053,1.487,5.738,5.738,0,0,0-1.011,3.479v.308a5.254,5.254,0,0,0,1.064,3.368,3.794,3.794,0,0,0,3.128,1.418,5.421,5.421,0,0,0,1.867-.32,4.324,4.324,0,0,0,1.445-.832l.419-.383-.217-.525-.549-1.323-.1-.24h.785v-1.967a5.044,5.044,0,0,0-.938-3.173,3.409,3.409,0,0,0-2.841-1.3Zm-.05,3.284.028,0a.915.915,0,0,1,.045.139H511.6a.812.812,0,0,1,.043-.089.191.191,0,0,1,.033-.047Zm-.1,3.153h1.84a3.128,3.128,0,0,1-.525.247,2.517,2.517,0,0,1-.792.1c-.311,0-.384-.108-.427-.173a1.273,1.273,0,0,1-.1-.176Z" fill="#fff"/>
        </g>
        <g id="Grupo_28981" data-name="Grupo 28981">
          <path id="Trazado_10218" data-name="Trazado 10218" d="M518.773,3707.033a3.262,3.262,0,0,1-2.771-1.309,5.254,5.254,0,0,1-.933-3.207v-.218a5.265,5.265,0,0,1,.932-3.2,3.248,3.248,0,0,1,2.765-1.318,3.121,3.121,0,0,1,2.4.977,3.542,3.542,0,0,1,.866,2.561v.074l-.128.325-.29.037h-2.329v-.405a1.843,1.843,0,0,0-.181-.891.348.348,0,0,0-.338-.207c-.2,0-.4.05-.539.411A4.747,4.747,0,0,0,518,3702.3v.218a4.753,4.753,0,0,0,.229,1.651.526.526,0,0,0,.546.4.376.376,0,0,0,.352-.161,1.323,1.323,0,0,0,.16-.726v-.406h2.571l.153.307.024.137a3.156,3.156,0,0,1-.91,2.379A3.206,3.206,0,0,1,518.773,3707.033Z"/>
          <path id="Trazado_10219" data-name="Trazado 10219" d="M518.766,3698.188a2.728,2.728,0,0,1,2.1.846,3.148,3.148,0,0,1,.759,2.28l-.015.038H519.69a2.218,2.218,0,0,0-.233-1.09.75.75,0,0,0-.691-.413.923.923,0,0,0-.917.673,5.084,5.084,0,0,0-.256,1.777v.218a5.1,5.1,0,0,0,.256,1.8.926.926,0,0,0,.924.661.78.78,0,0,0,.684-.334,1.669,1.669,0,0,0,.233-.958h1.916l.023.044a2.753,2.753,0,0,1-.793,2.086,2.8,2.8,0,0,1-2.063.816,2.863,2.863,0,0,1-2.446-1.147,4.84,4.84,0,0,1-.853-2.964v-.218a4.849,4.849,0,0,1,.853-2.957,2.851,2.851,0,0,1,2.439-1.154m0-.81a3.633,3.633,0,0,0-3.09,1.482,5.659,5.659,0,0,0-1.012,3.439v.218a5.647,5.647,0,0,0,1.013,3.448,3.649,3.649,0,0,0,3.1,1.473,3.6,3.6,0,0,0,2.636-1.053,3.545,3.545,0,0,0,1.03-2.673l0-.186-.084-.167-.225-.443-.52-.044H518.88v.81a.936.936,0,0,1-.088.5c-.113-.014-.132-.014-.188-.157a4.39,4.39,0,0,1-.2-1.5v-.218a4.343,4.343,0,0,1,.2-1.489c.053-.14.075-.151.142-.151a1.434,1.434,0,0,1,.132.693v.81h3.279l.205-.506.057-.14.018-.189a3.943,3.943,0,0,0-.975-2.843,3.514,3.514,0,0,0-2.7-1.106Z" fill="#fff"/>
        </g>
        <g id="Grupo_28982" data-name="Grupo 28982">
          <path id="Trazado_10220" data-name="Trazado 10220" d="M525,3707.033a2.4,2.4,0,0,1-2.054-1.05,5.044,5.044,0,0,1-.7-2.956v-5.093h2.928v5.109a3.2,3.2,0,0,0,.17,1.322.309.309,0,0,0,.312.2,1.021,1.021,0,0,0,.464-.1.877.877,0,0,0,.252-.192v-6.34h2.936v8.941h-2.473l-.114-.567a2.566,2.566,0,0,1-.362.308A2.3,2.3,0,0,1,525,3707.033Z"/>
          <path id="Trazado_10221" data-name="Trazado 10221" d="M528.9,3698.339v8.13h-1.736l-.233-1.157a2.627,2.627,0,0,1-.808.973,1.9,1.9,0,0,1-1.123.343,2.005,2.005,0,0,1-1.725-.88,4.723,4.723,0,0,1-.627-2.72v-4.689h2.119v4.7a3.656,3.656,0,0,0,.214,1.507.71.71,0,0,0,.672.417,1.414,1.414,0,0,0,.647-.14,1.282,1.282,0,0,0,.473-.41v-6.078H528.9m.81-.81h-3.747v6.56l-.025.014a.6.6,0,0,1-.245.053,3.423,3.423,0,0,1-.116-1.113v-5.514h-3.739v5.5a5.416,5.416,0,0,0,.778,3.191,2.819,2.819,0,0,0,2.384,1.219,2.719,2.719,0,0,0,1.452-.4l.049.242h3.209v-9.751Z" fill="#fff"/>
        </g>
        <g id="Grupo_28983" data-name="Grupo 28983">
          <path id="Trazado_10222" data-name="Trazado 10222" d="M532.78,3707.033a2.4,2.4,0,0,1-1.894-.77,3.367,3.367,0,0,1-.652-2.258v-3.751h-.984v-2.32h.984v-2.022h2.929v2.022h1.1v2.32h-1.1v3.735a.986.986,0,0,0,.078.506.745.745,0,0,0,.2.038.268.268,0,0,0,.052,0,2,2,0,0,0,.2-.052l.473-.151.251,2.376-.3.106a4.26,4.26,0,0,1-.637.17A3.9,3.9,0,0,1,532.78,3707.033Z"/>
          <path id="Trazado_10223" data-name="Trazado 10223" d="M532.758,3696.318v2.021h1.1v1.51h-1.1v4.141a1.349,1.349,0,0,0,.15.736.474.474,0,0,0,.413.218,1.3,1.3,0,0,0,.248-.019,2.1,2.1,0,0,0,.241-.064l.165,1.563a3.793,3.793,0,0,1-.575.155,3.613,3.613,0,0,1-.62.049,2,2,0,0,1-1.589-.632,2.979,2.979,0,0,1-.552-1.991v-4.156h-.985v-1.51h.985v-2.021h2.119m.81-.81h-3.739v2.021h-.985v3.13h.985V3704a3.7,3.7,0,0,0,.752,2.525,2.785,2.785,0,0,0,2.2.908,4.367,4.367,0,0,0,.762-.062,4.54,4.54,0,0,0,.7-.188l.6-.212-.067-.637-.166-1.563-.1-.985-.941.3c0-.029,0-.062,0-.1v-3.331h1.1v-3.13h-1.1v-2.021Z" fill="#fff"/>
        </g>
        <g id="Grupo_28984" data-name="Grupo 28984">
          <path id="Trazado_10224" data-name="Trazado 10224" d="M534.743,3706.875v-8.941h2.928v8.941Zm0-10.107v-2.426h2.928v2.426Z"/>
          <path id="Trazado_10225" data-name="Trazado 10225" d="M537.267,3694.747v1.615h-2.119v-1.615h2.119m0,3.592v8.13h-2.119v-8.13h2.119m.81-4.4h-3.739v3.235h3.739v-3.235Zm0,3.592h-3.739v9.751h3.739v-9.751Z" fill="#fff"/>
        </g>
        <g id="Grupo_28985" data-name="Grupo 28985">
          <path id="Trazado_10226" data-name="Trazado 10226" d="M540.192,3706.875l-2.554-8.941h3.1l.8,4.07.788-4.07h3.087l-2.545,8.941Z"/>
          <path id="Trazado_10227" data-name="Trazado 10227" d="M544.879,3698.339l-2.315,8.13H540.5l-2.322-8.13h2.232l1.007,5.125.1.616h.045l.113-.616.992-5.125h2.217m1.073-.81h-3.958l-.127.656-.33,1.7-.334-1.705-.129-.653H537.1l.295,1.032,2.322,8.131.168.588h3.289l.168-.589,2.314-8.131.294-1.031Z" fill="#fff"/>
        </g>
        <g id="Grupo_28986" data-name="Grupo 28986">
          <path id="Trazado_10228" data-name="Trazado 10228" d="M548.674,3707.033a3.336,3.336,0,0,1-2.793-1.3,5.163,5.163,0,0,1-.964-3.23v-.173a5.229,5.229,0,0,1,.958-3.232,3.61,3.61,0,0,1,5.57,0,5.183,5.183,0,0,1,.97,3.234v.173a5.154,5.154,0,0,1-.967,3.227A3.322,3.322,0,0,1,548.674,3707.033Zm-.015-6.779c-.193,0-.411.052-.569.434a4.4,4.4,0,0,0-.251,1.641v.173a4.374,4.374,0,0,0,.25,1.646.581.581,0,0,0,.585.421c.187,0,.4-.049.559-.423a4.318,4.318,0,0,0,.253-1.644v-.173a4.374,4.374,0,0,0-.254-1.643C549.072,3700.3,548.853,3700.254,548.659,3700.254Z"/>
          <path id="Trazado_10229" data-name="Trazado 10229" d="M548.659,3698.188a2.936,2.936,0,0,1,2.465,1.154,4.763,4.763,0,0,1,.886,2.987v.173a4.742,4.742,0,0,1-.883,2.979,3.221,3.221,0,0,1-4.925,0,4.75,4.75,0,0,1-.88-2.983v-.173a4.8,4.8,0,0,1,.876-2.987,2.91,2.91,0,0,1,2.461-1.154m.015,6.786a.967.967,0,0,0,.932-.669,4.689,4.689,0,0,0,.285-1.8v-.173a4.735,4.735,0,0,0-.285-1.8,1,1,0,0,0-1.89,0,4.781,4.781,0,0,0-.282,1.8v.173a4.734,4.734,0,0,0,.282,1.8.978.978,0,0,0,.958.669m-.015-7.6a3.7,3.7,0,0,0-3.107,1.474,5.619,5.619,0,0,0-1.04,3.477v.173a5.562,5.562,0,0,0,1.048,3.477,4.03,4.03,0,0,0,6.209,0,5.548,5.548,0,0,0,1.051-3.474v-.173a5.576,5.576,0,0,0-1.054-3.481,3.722,3.722,0,0,0-3.107-1.47Zm.015,6.786c-.1,0-.139,0-.212-.174a3.99,3.99,0,0,1-.218-1.488v-.173a4.031,4.031,0,0,1,.221-1.488c.075-.182.117-.182.194-.182s.122,0,.2.184a3.994,3.994,0,0,1,.222,1.486v.173a3.953,3.953,0,0,1-.22,1.485c-.076.177-.118.177-.187.177Z" fill="#fff"/>
        </g>
        <g id="Grupo_28987" data-name="Grupo 28987">
          <path id="Trazado_10230" data-name="Trazado 10230" d="M556.295,3706.875v-11.752h3.779a4,4,0,0,1,3.137,1.42,5.228,5.228,0,0,1,1.22,3.554v1.811a5.214,5.214,0,0,1-1.22,3.556,4.018,4.018,0,0,1-3.137,1.411Zm3.779-2.464a1.105,1.105,0,0,0,.978-.62,3.548,3.548,0,0,0,.443-1.883v-1.826a3.511,3.511,0,0,0-.443-1.867,1.106,1.106,0,0,0-.978-.62h-.85v6.816Z"/>
          <path id="Trazado_10231" data-name="Trazado 10231" d="M560.074,3695.528a3.6,3.6,0,0,1,2.833,1.282,4.815,4.815,0,0,1,1.119,3.287v1.811a4.8,4.8,0,0,1-1.119,3.288,3.61,3.61,0,0,1-2.833,1.273H556.7v-10.941h3.374m-1.255,9.288h1.255A1.509,1.509,0,0,0,561.4,3704a3.924,3.924,0,0,0,.5-2.1v-1.826a3.89,3.89,0,0,0-.5-2.081,1.51,1.51,0,0,0-1.322-.812h-1.255v7.627m1.255-10.1H555.89v12.562h4.184a4.407,4.407,0,0,0,3.441-1.549,5.6,5.6,0,0,0,1.321-3.823V3700.1a5.621,5.621,0,0,0-1.319-3.82,4.393,4.393,0,0,0-3.443-1.559Zm-.445,3.281h.445c.182,0,.4.051.634.429a3.132,3.132,0,0,1,.382,1.654v1.826a3.171,3.171,0,0,1-.382,1.67c-.234.377-.452.428-.634.428h-.445V3698Z" fill="#fff"/>
        </g>
        <g id="Grupo_28988" data-name="Grupo 28988">
          <path id="Trazado_10232" data-name="Trazado 10232" d="M565.072,3706.875v-8.941H568v8.941Zm0-10.107v-2.426H568v2.426Z"/>
          <path id="Trazado_10233" data-name="Trazado 10233" d="M567.6,3694.747v1.615h-2.119v-1.615H567.6m0,3.592v8.13h-2.119v-8.13H567.6m.81-4.4h-3.739v3.235h3.739v-3.235Zm0,3.592h-3.739v9.751h3.739v-9.751Z" fill="#fff"/>
        </g>
        <g id="Grupo_28989" data-name="Grupo 28989">
          <path id="Trazado_10234" data-name="Trazado 10234" d="M571.781,3710.159a4.729,4.729,0,0,1-1.246-.18,5.792,5.792,0,0,1-1.209-.487l-.267-.144.532-2.427.472.251a3.9,3.9,0,0,0,.815.326,3.481,3.481,0,0,0,.889.107.946.946,0,0,0,.745-.251,1.135,1.135,0,0,0,.224-.627c-.031.018-.063.036-.1.052a2.321,2.321,0,0,1-1.085.254,2.654,2.654,0,0,1-2.347-1.286,5.712,5.712,0,0,1-.778-3.141v-.157a6.309,6.309,0,0,1,.772-3.3,2.638,2.638,0,0,1,2.368-1.366,2.147,2.147,0,0,1,1.212.349,2.51,2.51,0,0,1,.252.192l.06-.39h2.593v8.491a3.6,3.6,0,0,1-1.056,2.752A4.019,4.019,0,0,1,571.781,3710.159Zm.339-9.9c-.168,0-.36.053-.513.451a4.969,4.969,0,0,0-.248,1.736v.157a4.229,4.229,0,0,0,.232,1.58.513.513,0,0,0,.521.376.834.834,0,0,0,.416-.095.737.737,0,0,0,.224-.205v-3.62a.916.916,0,0,0-.255-.274A.659.659,0,0,0,572.12,3700.262Z"/>
          <path id="Trazado_10235" data-name="Trazado 10235" d="M571.571,3698.188a1.743,1.743,0,0,1,.988.282,2.491,2.491,0,0,1,.74.8l.143-.932h1.841v8.085a3.208,3.208,0,0,1-.928,2.458,3.612,3.612,0,0,1-2.574.872,4.275,4.275,0,0,1-1.138-.166,5.342,5.342,0,0,1-1.124-.451l.354-1.608a4.288,4.288,0,0,0,.9.361,3.855,3.855,0,0,0,.992.12,1.329,1.329,0,0,0,1.049-.387,1.787,1.787,0,0,0,.342-1.206v-.6a2.154,2.154,0,0,1-.7.6,1.9,1.9,0,0,1-.9.208,2.261,2.261,0,0,1-2.006-1.1,5.292,5.292,0,0,1-.714-2.92v-.158a5.87,5.87,0,0,1,.714-3.088,2.243,2.243,0,0,1,2.021-1.173m.541,6.779a1.206,1.206,0,0,0,.62-.151,1.162,1.162,0,0,0,.425-.436v-3.847a1.394,1.394,0,0,0-.432-.5,1.058,1.058,0,0,0-.6-.177.937.937,0,0,0-.891.711,5.328,5.328,0,0,0-.274,1.882v.158a4.584,4.584,0,0,0,.263,1.736.912.912,0,0,0,.894.624m-.541-7.589a3.055,3.055,0,0,0-2.713,1.561,6.693,6.693,0,0,0-.832,3.51v.158a6.1,6.1,0,0,0,.844,3.36,3.613,3.613,0,0,0,.4.516l-.191.872-.354,1.608-.13.594.534.291a6.139,6.139,0,0,0,1.295.52,5.054,5.054,0,0,0,1.354.2,4.4,4.4,0,0,0,3.128-1.091,4,4,0,0,0,1.184-3.049v-8.9h-3.346l-.017.107a2.612,2.612,0,0,0-1.159-.258Zm.541,6.778c-.078,0-.094,0-.148-.127a3.772,3.772,0,0,1-.2-1.422v-.158a4.607,4.607,0,0,1,.219-1.59.45.45,0,0,1,.111-.192h0a.291.291,0,0,1,.176.037.386.386,0,0,1,.076.069v3.329l-.021.013a.433.433,0,0,1-.214.041Z" fill="#fff"/>
        </g>
        <g id="Grupo_28990" data-name="Grupo 28990">
          <path id="Trazado_10236" data-name="Trazado 10236" d="M576.381,3706.875v-8.941h2.929v8.941Zm0-10.107v-2.426h2.929v2.426Z"/>
          <path id="Trazado_10237" data-name="Trazado 10237" d="M578.905,3694.747v1.615h-2.119v-1.615h2.119m0,3.592v8.13h-2.119v-8.13h2.119m.81-4.4h-3.739v3.235h3.739v-3.235Zm0,3.592h-3.739v9.751h3.739v-9.751Z" fill="#fff"/>
        </g>
        <g id="Grupo_28991" data-name="Grupo 28991">
          <path id="Trazado_10238" data-name="Trazado 10238" d="M582.926,3707.033a2.4,2.4,0,0,1-1.9-.77,3.373,3.373,0,0,1-.652-2.258v-3.751H579.4v-2.32h.984v-2.022h2.929v2.022h1.105v2.32h-1.105v3.735a.984.984,0,0,0,.079.507.76.76,0,0,0,.2.037.271.271,0,0,0,.053,0c.051-.01.117-.028.2-.052l.473-.151.251,2.376-.3.106a4.314,4.314,0,0,1-.636.17A3.913,3.913,0,0,1,582.926,3707.033Z"/>
          <path id="Trazado_10239" data-name="Trazado 10239" d="M582.9,3696.318v2.021h1.1v1.51h-1.1v4.141a1.35,1.35,0,0,0,.15.736.474.474,0,0,0,.414.218,1.321,1.321,0,0,0,.248-.019,2.1,2.1,0,0,0,.24-.064l.165,1.563a3.763,3.763,0,0,1-.575.155,3.6,3.6,0,0,1-.619.049,2,2,0,0,1-1.59-.632,2.979,2.979,0,0,1-.552-1.991v-4.156H579.8v-1.51h.984v-2.021H582.9m.81-.81h-3.739v2.021h-.984v3.13h.984V3704a3.7,3.7,0,0,0,.752,2.525,2.785,2.785,0,0,0,2.2.908,4.365,4.365,0,0,0,.761-.062,4.538,4.538,0,0,0,.7-.188l.6-.212-.067-.637-.165-1.563-.1-.985-.941.3c0-.029,0-.062,0-.1v-3.331h1.1v-3.13h-1.1v-2.021Z" fill="#fff"/>
        </g>
        <g id="Grupo_28992" data-name="Grupo 28992">
          <path id="Trazado_10240" data-name="Trazado 10240" d="M587.149,3707.033a2.6,2.6,0,0,1-2.008-.782,2.935,2.935,0,0,1-.7-2.058,2.671,2.671,0,0,1,.93-2.156,3.982,3.982,0,0,1,2.609-.752h.519v-.271a1.281,1.281,0,0,0-.154-.7.356.356,0,0,0-.336-.153.3.3,0,0,0-.272.106.847.847,0,0,0-.119.505v.406l-2.742-.01-.109-.331-.018-.1a2.562,2.562,0,0,1,.926-2.109,3.606,3.606,0,0,1,2.47-.838,3.342,3.342,0,0,1,2.356.845,3.121,3.121,0,0,1,.927,2.4v3.336a6.45,6.45,0,0,0,.077,1.018,6.013,6.013,0,0,0,.24.957l.18.535h-2.932l-.106-.241a3.606,3.606,0,0,1-.134-.349,3.044,3.044,0,0,1-.252.255A1.97,1.97,0,0,1,587.149,3707.033Zm.827-3.735c-.291,0-.394.1-.447.174a1.089,1.089,0,0,0-.171.637.7.7,0,0,0,.119.438.246.246,0,0,0,.22.1.781.781,0,0,0,.5-.172.909.909,0,0,0,.3-.38v-.8Z"/>
          <path id="Trazado_10241" data-name="Trazado 10241" d="M588.141,3698.188a2.945,2.945,0,0,1,2.081.737,2.723,2.723,0,0,1,.8,2.1v3.336a6.7,6.7,0,0,0,.083,1.083,6.378,6.378,0,0,0,.255,1.021h-2.1a3.593,3.593,0,0,1-.2-.586,4.861,4.861,0,0,1-.117-.646,2.864,2.864,0,0,1-.71,1,1.568,1.568,0,0,1-1.078.391,2.207,2.207,0,0,1-1.71-.65,2.541,2.541,0,0,1-.6-1.785,2.278,2.278,0,0,1,.785-1.846,3.589,3.589,0,0,1,2.348-.657h.925v-.676a1.634,1.634,0,0,0-.226-.936.761.761,0,0,0-.668-.327.7.7,0,0,0-.594.264,1.206,1.206,0,0,0-.2.751l-2.044-.008-.015-.045a2.165,2.165,0,0,1,.789-1.788,3.2,3.2,0,0,1,2.2-.737m-.444,6.869a1.187,1.187,0,0,0,.752-.26,1.308,1.308,0,0,0,.451-.627v-1.277h-.925a.885.885,0,0,0-.777.345,1.475,1.475,0,0,0-.245.872,1.09,1.09,0,0,0,.2.684.651.651,0,0,0,.541.263m.444-7.679a4,4,0,0,0-2.738.94,2.986,2.986,0,0,0-1.062,2.43l.005.113.035.108.184.552.6.047h.151c-.071.05-.14.1-.206.157a3.061,3.061,0,0,0-1.075,2.467,3.328,3.328,0,0,0,.811,2.333,2.987,2.987,0,0,0,2.306.912,2.374,2.374,0,0,0,1.445-.457l.133.3h3.76l-.363-1.07a5.654,5.654,0,0,1-.223-.891,6,6,0,0,1-.072-.954v-3.336a3.511,3.511,0,0,0-1.056-2.7,3.741,3.741,0,0,0-2.632-.952Zm-.122,3.5v-.114a.937.937,0,0,1,.018-.2h.008c-.014.005.028.093.041.315Zm-.161,2.831a.973.973,0,0,1,.117-.008h.115v.3a.585.585,0,0,1-.14.152.371.371,0,0,1-.175.081.608.608,0,0,1-.012-.13.713.713,0,0,1,.093-.4Z" fill="#fff"/>
        </g>
        <g id="Grupo_28993" data-name="Grupo 28993">
          <rect id="Rectángulo_5020" data-name="Rectángulo 5020" width="2.929" height="12.533" transform="translate(592.08 3694.342)"/>
          <path id="Trazado_10242" data-name="Trazado 10242" d="M594.6,3694.747v11.722h-2.119v-11.722H594.6m.81-.81h-3.739v13.343h3.739v-13.343Z" fill="#fff"/>
        </g>
      </g>
    </g>
    <g id="Grupo_29017" data-name="Grupo 29017">
      <g id="Grupo_29016" data-name="Grupo 29016">
        <g id="Grupo_28996" data-name="Grupo 28996">
          <path id="Trazado_10243" data-name="Trazado 10243" d="M764.019,3706.875v-9.28h-2.5v-2.472h8.01v2.472h-2.57v9.28Z"/>
          <path id="Trazado_10244" data-name="Trazado 10244" d="M769.121,3695.528v1.661h-2.57v9.28h-2.127v-9.28h-2.5v-1.661h7.2m.81-.81h-8.819V3698h2.5v9.281h3.747V3698h2.57v-3.281Z" fill="#fff"/>
        </g>
        <g id="Grupo_28997" data-name="Grupo 28997">
          <path id="Trazado_10245" data-name="Trazado 10245" d="M769.054,3706.875v-8.941h2.758l.022.3,0,0a1.589,1.589,0,0,1,1.116-.452,1.674,1.674,0,0,1,.35.036c.088.02.18.042.276.071l.326.1-.3,2.6-1.092-.033a.517.517,0,0,0-.327.1.731.731,0,0,0-.209.287v5.933Z"/>
          <path id="Trazado_10246" data-name="Trazado 10246" d="M772.954,3698.188a1.251,1.251,0,0,1,.262.026c.08.019.163.039.249.065l-.219,1.893-.721-.023a.92.92,0,0,0-.59.188,1.183,1.183,0,0,0-.364.527v5.6h-2.112v-8.13h1.977l.082,1.149a2.5,2.5,0,0,1,.6-.958,1.193,1.193,0,0,1,.839-.342m0-.81a1.974,1.974,0,0,0-.764.151h-3.541v9.751h3.732v-6.24a.261.261,0,0,1,.058-.068.186.186,0,0,1,.086-.013l.7.023.745.023.085-.74.218-1.894.078-.675-.652-.194c-.1-.03-.2-.055-.3-.077a2.038,2.038,0,0,0-.443-.047Z" fill="#fff"/>
        </g>
        <g id="Grupo_28998" data-name="Grupo 28998">
          <path id="Trazado_10247" data-name="Trazado 10247" d="M776.2,3707.033a2.6,2.6,0,0,1-2.008-.781,2.939,2.939,0,0,1-.705-2.059,2.672,2.672,0,0,1,.931-2.156,3.986,3.986,0,0,1,2.608-.752h.519v-.271a1.291,1.291,0,0,0-.153-.7.353.353,0,0,0-.335-.153.3.3,0,0,0-.273.1.852.852,0,0,0-.119.506v.406l-2.745-.01-.107-.333-.016-.1a2.556,2.556,0,0,1,.926-2.109,3.6,3.6,0,0,1,2.469-.838,3.352,3.352,0,0,1,2.357.844,3.128,3.128,0,0,1,.926,2.4v3.336a6.527,6.527,0,0,0,.077,1.018,6.1,6.1,0,0,0,.24.957l.181.535H778.04l-.106-.241a3.607,3.607,0,0,1-.134-.349,2.745,2.745,0,0,1-.252.254A1.966,1.966,0,0,1,776.2,3707.033Zm.826-3.735c-.29,0-.393.1-.446.174a1.086,1.086,0,0,0-.17.637.7.7,0,0,0,.118.439.248.248,0,0,0,.22.1.769.769,0,0,0,.5-.172.894.894,0,0,0,.3-.379v-.8Z"/>
          <path id="Trazado_10248" data-name="Trazado 10248" d="M777.192,3698.188a2.943,2.943,0,0,1,2.081.737,2.723,2.723,0,0,1,.8,2.1v3.336a6.69,6.69,0,0,0,.083,1.083,6.269,6.269,0,0,0,.255,1.021h-2.1a3.507,3.507,0,0,1-.2-.586,4.87,4.87,0,0,1-.116-.646,2.88,2.88,0,0,1-.711,1,1.566,1.566,0,0,1-1.078.391,2.2,2.2,0,0,1-1.709-.65,2.536,2.536,0,0,1-.6-1.785,2.275,2.275,0,0,1,.785-1.846,3.591,3.591,0,0,1,2.349-.657h.924v-.676a1.642,1.642,0,0,0-.226-.936.761.761,0,0,0-.668-.327.7.7,0,0,0-.594.264,1.2,1.2,0,0,0-.2.751l-2.044-.008-.015-.045a2.165,2.165,0,0,1,.789-1.788,3.205,3.205,0,0,1,2.2-.737m-.444,6.869a1.188,1.188,0,0,0,.752-.26,1.3,1.3,0,0,0,.451-.627v-1.277h-.924a.886.886,0,0,0-.778.345,1.474,1.474,0,0,0-.244.872,1.09,1.09,0,0,0,.2.684.65.65,0,0,0,.541.263m.444-7.679a4,4,0,0,0-2.739.94,2.991,2.991,0,0,0-1.061,2.43l0,.113.035.108.184.552.6.047h.151c-.071.05-.14.1-.206.157a3.06,3.06,0,0,0-1.075,2.467,3.329,3.329,0,0,0,.811,2.333,2.989,2.989,0,0,0,2.306.912,2.379,2.379,0,0,0,1.446-.457l.133.3h3.759l-.363-1.07a5.462,5.462,0,0,1-.222-.89,5.933,5.933,0,0,1-.073-.955v-3.336a3.511,3.511,0,0,0-1.057-2.7,3.735,3.735,0,0,0-2.631-.952Zm-.122,3.5v-.114a.933.933,0,0,1,.018-.2h.008c-.014.005.028.094.041.315Zm-.161,2.831a.977.977,0,0,1,.118-.008h.114v.3a.585.585,0,0,1-.14.152.366.366,0,0,1-.175.081.7.7,0,0,1-.011-.13.716.716,0,0,1,.092-.4Z" fill="#fff"/>
        </g>
        <g id="Grupo_28999" data-name="Grupo 28999">
          <path id="Trazado_10249" data-name="Trazado 10249" d="M785.12,3706.875v-5.343a2.293,2.293,0,0,0-.166-1.091.326.326,0,0,0-.322-.179.843.843,0,0,0-.432.109.987.987,0,0,0-.275.245v6.259h-2.93v-8.941h2.755l.039.488a2.81,2.81,0,0,1,.295-.231,2.365,2.365,0,0,1,1.344-.408,2.3,2.3,0,0,1,1.954.974,4.662,4.662,0,0,1,.668,2.775v5.343Z"/>
          <path id="Trazado_10250" data-name="Trazado 10250" d="M785.428,3698.188a1.9,1.9,0,0,1,1.626.808,4.333,4.333,0,0,1,.59,2.536v4.937h-2.119v-4.937a2.738,2.738,0,0,0-.221-1.3.729.729,0,0,0-.673-.38,1.237,1.237,0,0,0-.635.166,1.434,1.434,0,0,0-.477.466v5.981H781.4v-8.13h1.976l.09,1.135a2.759,2.759,0,0,1,.846-.948,1.958,1.958,0,0,1,1.116-.338m0-.81a2.764,2.764,0,0,0-1.291.311l-.013-.16H780.59v9.751h3.739v-6.505a.55.55,0,0,1,.075-.053.4.4,0,0,1,.209-.055,2.4,2.4,0,0,1,.1.865v5.748h3.739v-5.748a5.034,5.034,0,0,0-.746-3.014,2.716,2.716,0,0,0-2.28-1.14Z" fill="#fff"/>
        </g>
        <g id="Grupo_29000" data-name="Grupo 29000">
          <path id="Trazado_10251" data-name="Trazado 10251" d="M791.65,3707.033a3.47,3.47,0,0,1-2.531-.928,2.781,2.781,0,0,1-.909-2.145l0-.088.151-.3.273-.045h2.32l.009.4a.98.98,0,0,0,.19.667.75.75,0,0,0,.546.176.587.587,0,0,0,.409-.112.368.368,0,0,0,.111-.3.4.4,0,0,0-.147-.318,4.162,4.162,0,0,0-.971-.555,5.911,5.911,0,0,1-1.969-1.117,2.334,2.334,0,0,1-.753-1.783,2.576,2.576,0,0,1,.929-1.995,3.479,3.479,0,0,1,2.37-.8,3.573,3.573,0,0,1,2.451.828,2.628,2.628,0,0,1,.913,2.146v.057l-.109.334-.309.045h-2.449v-.405a.99.99,0,0,0-.149-.585.385.385,0,0,0-.356-.143.468.468,0,0,0-.342.128.38.38,0,0,0-.124.291.34.34,0,0,0,.112.282,4.658,4.658,0,0,0,.985.547,5.458,5.458,0,0,1,2.019,1.115,2.445,2.445,0,0,1,.754,1.845,2.473,2.473,0,0,1-.982,2.015A3.823,3.823,0,0,1,791.65,3707.033Z"/>
          <path id="Trazado_10252" data-name="Trazado 10252" d="M791.68,3698.188a3.163,3.163,0,0,1,2.183.726,2.234,2.234,0,0,1,.778,1.829l-.015.045h-2.044a1.374,1.374,0,0,0-.225-.822.79.79,0,0,0-.685-.312.863.863,0,0,0-.62.241.775.775,0,0,0-.251.585.747.747,0,0,0,.248.583,5.135,5.135,0,0,0,1.082.612,5.243,5.243,0,0,1,1.912,1.041,2.046,2.046,0,0,1,.628,1.551,2.077,2.077,0,0,1-.831,1.7,3.41,3.41,0,0,1-2.19.662,3.068,3.068,0,0,1-2.247-.812,2.387,2.387,0,0,1-.789-1.841l.022-.046h1.924a1.322,1.322,0,0,0,.316.951,1.14,1.14,0,0,0,.826.289.974.974,0,0,0,.688-.221.779.779,0,0,0,.237-.6.809.809,0,0,0-.278-.616,4.564,4.564,0,0,0-1.075-.623,5.686,5.686,0,0,1-1.863-1.045,1.939,1.939,0,0,1-.624-1.488,2.178,2.178,0,0,1,.792-1.691,3.068,3.068,0,0,1,2.1-.7m0-.81a3.865,3.865,0,0,0-2.636.9,2.968,2.968,0,0,0-1.067,2.3,2.762,2.762,0,0,0,.883,2.082,4.263,4.263,0,0,0,.594.459h-1.322l-.223.454-.022.045-.076.154-.006.173a3.177,3.177,0,0,0,1.03,2.449,3.862,3.862,0,0,0,2.815,1.044,4.213,4.213,0,0,0,2.695-.838,2.9,2.9,0,0,0,1.136-2.333,2.834,2.834,0,0,0-.88-2.138,4.211,4.211,0,0,0-.7-.531h1.3l.185-.553.038-.112.019-.163a3.061,3.061,0,0,0-1.05-2.462,3.96,3.96,0,0,0-2.721-.93Zm.071,3.191a1.207,1.207,0,0,1-.162-.11.115.115,0,0,0,.037.007l.046,0,.044,0a.439.439,0,0,1,.035.1Zm-.313,3.728a.6.6,0,0,1-.058-.232,2.163,2.163,0,0,1,.42.265l.005.023a.842.842,0,0,1-.1.006.443.443,0,0,1-.264-.062Z" fill="#fff"/>
        </g>
        <g id="Grupo_29001" data-name="Grupo 29001">
          <path id="Trazado_10253" data-name="Trazado 10253" d="M795.844,3706.875v-6.621h-1.015v-2.32h1.015v-.512a3.3,3.3,0,0,1,.823-2.378,3.057,3.057,0,0,1,2.295-.86,3.424,3.424,0,0,1,.561.046c.175.03.374.07.6.123l.347.082-.249,2.407-.45-.109q-.144-.033-.273-.054a1.892,1.892,0,0,0-.271-.016.33.33,0,0,0-.31.135,1.088,1.088,0,0,0-.142.624v.512h1.308v2.32h-1.308v6.621Z"/>
          <path id="Trazado_10254" data-name="Trazado 10254" d="M798.961,3694.588a3.081,3.081,0,0,1,.5.042c.166.028.356.067.572.117l-.166,1.593c-.1-.026-.2-.045-.3-.06a2.18,2.18,0,0,0-.338-.023.737.737,0,0,0-.639.3,1.457,1.457,0,0,0-.218.861v.917h1.308v1.51h-1.308v6.62h-2.119v-6.62h-1.015v-1.51h1.015v-.917a2.9,2.9,0,0,1,.71-2.1,2.648,2.648,0,0,1,2-.738m0-.81a3.437,3.437,0,0,0-2.585.986,3.684,3.684,0,0,0-.937,2.658v.107h-1.015v3.13h1.015v6.621h3.739v-6.621h1.308v-3.13h-1.308v-.107a.964.964,0,0,1,.048-.353h.036a1.129,1.129,0,0,1,.175.011c.074.012.154.027.238.047l.9.215.1-.919.165-1.593.074-.711-.7-.161c-.233-.055-.441-.1-.62-.127a3.81,3.81,0,0,0-.63-.053Z" fill="#fff"/>
        </g>
        <g id="Grupo_29002" data-name="Grupo 29002">
          <path id="Trazado_10255" data-name="Trazado 10255" d="M803.65,3707.033a3.338,3.338,0,0,1-2.793-1.3,5.175,5.175,0,0,1-.963-3.23v-.173a5.214,5.214,0,0,1,.959-3.232,3.609,3.609,0,0,1,5.569,0,5.189,5.189,0,0,1,.971,3.234v.173a5.157,5.157,0,0,1-.968,3.227A3.324,3.324,0,0,1,803.65,3707.033Zm-.014-6.779c-.193,0-.411.052-.57.434a4.429,4.429,0,0,0-.25,1.641v.173a4.4,4.4,0,0,0,.249,1.646.582.582,0,0,0,.585.421c.188,0,.4-.049.56-.423a4.309,4.309,0,0,0,.253-1.644v-.173a4.337,4.337,0,0,0-.254-1.642C804.049,3700.3,803.829,3700.254,803.636,3700.254Z"/>
          <path id="Trazado_10256" data-name="Trazado 10256" d="M803.636,3698.188a2.931,2.931,0,0,1,2.464,1.154,4.764,4.764,0,0,1,.887,2.987v.173a4.742,4.742,0,0,1-.883,2.979,3.221,3.221,0,0,1-4.925,0,4.757,4.757,0,0,1-.88-2.983v-.173a4.8,4.8,0,0,1,.876-2.987,2.912,2.912,0,0,1,2.461-1.154m.015,6.786a.964.964,0,0,0,.931-.669,4.667,4.667,0,0,0,.286-1.8v-.173a4.713,4.713,0,0,0-.286-1.8,1,1,0,0,0-1.889,0,4.781,4.781,0,0,0-.282,1.8v.173a4.734,4.734,0,0,0,.282,1.8.978.978,0,0,0,.958.669m-.015-7.6a3.694,3.694,0,0,0-3.106,1.474,5.611,5.611,0,0,0-1.041,3.477v.173a5.562,5.562,0,0,0,1.048,3.477,4.03,4.03,0,0,0,6.209,0,5.552,5.552,0,0,0,1.051-3.474v-.173a5.582,5.582,0,0,0-1.054-3.481,3.72,3.72,0,0,0-3.107-1.47Zm.015,6.786c-.095,0-.139,0-.212-.174a4.009,4.009,0,0,1-.218-1.488v-.173a4.031,4.031,0,0,1,.221-1.488c.075-.182.117-.182.194-.182s.122,0,.2.184a3.987,3.987,0,0,1,.222,1.486v.173a3.946,3.946,0,0,1-.22,1.485c-.076.177-.118.177-.187.177Z" fill="#fff"/>
        </g>
        <g id="Grupo_29003" data-name="Grupo 29003">
          <path id="Trazado_10257" data-name="Trazado 10257" d="M807.732,3706.875v-8.941h2.758l.022.3.005,0a1.581,1.581,0,0,1,1.114-.452,1.607,1.607,0,0,1,.349.036c.09.02.182.042.278.071l.326.1-.3,2.6-1.094-.033a.52.52,0,0,0-.326.1.751.751,0,0,0-.211.288v5.932Z"/>
          <path id="Trazado_10258" data-name="Trazado 10258" d="M811.631,3698.188a1.278,1.278,0,0,1,.264.026c.079.019.162.039.247.065l-.217,1.893-.722-.023a.922.922,0,0,0-.59.188,1.2,1.2,0,0,0-.365.527v5.6h-2.111v-8.13h1.976l.083,1.149a2.505,2.505,0,0,1,.6-.958,1.186,1.186,0,0,1,.837-.342m0-.81a1.975,1.975,0,0,0-.764.152h-3.54v9.751h3.731v-6.239a.269.269,0,0,1,.059-.069.19.19,0,0,1,.086-.013l.7.023.745.023.085-.74.218-1.894.077-.675-.651-.194c-.1-.03-.2-.055-.3-.077a2.084,2.084,0,0,0-.445-.047Z" fill="#fff"/>
        </g>
        <g id="Grupo_29004" data-name="Grupo 29004">
          <path id="Trazado_10259" data-name="Trazado 10259" d="M820.477,3706.875v-5.207a2.771,2.771,0,0,0-.166-1.224.319.319,0,0,0-.316-.182.553.553,0,0,0-.344.11.981.981,0,0,0-.254.3c0,.073.008.138.013.2.009.1.014.2.014.306v5.7H816.5v-5.207a2.766,2.766,0,0,0-.168-1.219.32.32,0,0,0-.32-.187.613.613,0,0,0-.337.092.878.878,0,0,0-.228.213v6.308h-2.929v-8.941h2.755l.035.432a2.853,2.853,0,0,1,.29-.21,2.538,2.538,0,0,1,1.36-.373,2.252,2.252,0,0,1,1.341.41,2.172,2.172,0,0,1,.52.539,2.815,2.815,0,0,1,.554-.518,2.418,2.418,0,0,1,1.418-.431,2.256,2.256,0,0,1,1.948,1.031,4.979,4.979,0,0,1,.666,2.854v5.207Z"/>
          <path id="Trazado_10260" data-name="Trazado 10260" d="M820.792,3698.188a1.865,1.865,0,0,1,1.615.857,4.644,4.644,0,0,1,.594,2.623v4.8h-2.119v-4.8a3.211,3.211,0,0,0-.218-1.421.718.718,0,0,0-.669-.391.955.955,0,0,0-.586.192,1.431,1.431,0,0,0-.421.53c.005.125.012.233.019.323s.011.18.011.27v5.3h-2.112v-4.8a3.217,3.217,0,0,0-.217-1.413.723.723,0,0,0-.676-.4,1.013,1.013,0,0,0-.553.155,1.339,1.339,0,0,0-.417.432v6.026h-2.119v-8.13H814.9l.083,1.045a2.468,2.468,0,0,1,.83-.884,2.126,2.126,0,0,1,1.146-.312,1.846,1.846,0,0,1,1.105.335,2.075,2.075,0,0,1,.714,1.018,2.645,2.645,0,0,1,.83-1,2.013,2.013,0,0,1,1.184-.357m0-.81a2.815,2.815,0,0,0-1.649.5,3.181,3.181,0,0,0-.3.242,2.414,2.414,0,0,0-.3-.259,2.645,2.645,0,0,0-1.577-.487,2.971,2.971,0,0,0-1.3.284l-.011-.133h-3.535v9.751h3.739v-6.555a.329.329,0,0,1,.04-.03.192.192,0,0,1,.094-.028,3,3,0,0,1,.109,1v5.612h3.732v-6.109c0-.114-.005-.227-.015-.341l0-.049a.448.448,0,0,1,.085-.084.12.12,0,0,1,.071-.029,3.023,3.023,0,0,1,.106,1v5.612h3.739v-5.612a5.345,5.345,0,0,0-.738-3.084,2.675,2.675,0,0,0-2.281-1.206Z" fill="#fff"/>
        </g>
        <g id="Grupo_29005" data-name="Grupo 29005">
          <path id="Trazado_10261" data-name="Trazado 10261" d="M826.375,3707.033a2.6,2.6,0,0,1-2.008-.782,2.931,2.931,0,0,1-.7-2.058,2.676,2.676,0,0,1,.929-2.156,3.988,3.988,0,0,1,2.609-.752h.52v-.271a1.281,1.281,0,0,0-.154-.7.351.351,0,0,0-.336-.153c-.19,0-.247.073-.271.1a.848.848,0,0,0-.12.506v.406l-2.745-.01-.107-.333-.016-.1a2.563,2.563,0,0,1,.924-2.109,3.614,3.614,0,0,1,2.471-.838,3.354,3.354,0,0,1,2.357.844,3.124,3.124,0,0,1,.926,2.4v3.336a6.462,6.462,0,0,0,.077,1.018,5.967,5.967,0,0,0,.24.957l.18.535h-2.931l-.107-.241c-.049-.112-.093-.228-.134-.349a2.752,2.752,0,0,1-.252.254A1.968,1.968,0,0,1,826.375,3707.033Zm.826-3.735c-.29,0-.393.1-.446.175a1.082,1.082,0,0,0-.17.636.708.708,0,0,0,.119.439.248.248,0,0,0,.22.1.783.783,0,0,0,.5-.172.918.918,0,0,0,.3-.379v-.8Z"/>
          <path id="Trazado_10262" data-name="Trazado 10262" d="M827.367,3698.188a2.947,2.947,0,0,1,2.082.737,2.722,2.722,0,0,1,.8,2.1v3.336a6.69,6.69,0,0,0,.083,1.083,6.378,6.378,0,0,0,.255,1.021h-2.1a3.593,3.593,0,0,1-.2-.586,5.035,5.035,0,0,1-.117-.646,2.865,2.865,0,0,1-.71,1,1.568,1.568,0,0,1-1.078.391,2.2,2.2,0,0,1-1.709-.65,2.537,2.537,0,0,1-.6-1.785,2.278,2.278,0,0,1,.785-1.846,3.592,3.592,0,0,1,2.349-.657h.924v-.676a1.643,1.643,0,0,0-.225-.936.764.764,0,0,0-.669-.327.7.7,0,0,0-.594.264,1.206,1.206,0,0,0-.2.751l-2.044-.008-.015-.045a2.165,2.165,0,0,1,.789-1.788,3.207,3.207,0,0,1,2.2-.737m-.443,6.869a1.185,1.185,0,0,0,.751-.26,1.3,1.3,0,0,0,.451-.627v-1.277H827.2a.887.887,0,0,0-.778.345,1.474,1.474,0,0,0-.244.872,1.09,1.09,0,0,0,.2.684.649.649,0,0,0,.541.263m.443-7.679a4,4,0,0,0-2.738.94,2.987,2.987,0,0,0-1.062,2.43l.005.113.035.108.184.552.6.047h.151c-.071.05-.14.1-.206.157a3.064,3.064,0,0,0-1.075,2.467,3.327,3.327,0,0,0,.811,2.333,2.989,2.989,0,0,0,2.306.912,2.378,2.378,0,0,0,1.445-.457l.132.3h3.761l-.363-1.07a5.541,5.541,0,0,1-.223-.892,6.064,6.064,0,0,1-.072-.953v-3.336a3.511,3.511,0,0,0-1.056-2.7,3.741,3.741,0,0,0-2.632-.952Zm-.122,3.5v-.114a.937.937,0,0,1,.018-.2h.008c-.014.005.028.094.041.315Zm-.161,2.831a.979.979,0,0,1,.118-.008h.114v.3a.557.557,0,0,1-.14.154.375.375,0,0,1-.175.08.691.691,0,0,1-.011-.13.714.714,0,0,1,.092-.4Z" fill="#fff"/>
        </g>
        <g id="Grupo_29006" data-name="Grupo 29006">
          <path id="Trazado_10263" data-name="Trazado 10263" d="M834.048,3707.033a2.655,2.655,0,0,1-2.347-1.286,5.715,5.715,0,0,1-.779-3.141v-.157a6.314,6.314,0,0,1,.773-3.3,2.639,2.639,0,0,1,2.367-1.366,2.1,2.1,0,0,1,1.09.291c.031.018.061.036.091.056v-3.788h2.93v12.533h-2.558l-.068-.4a2.346,2.346,0,0,1-.291.216A2.235,2.235,0,0,1,834.048,3707.033Zm.556-6.771c-.168,0-.361.053-.518.456a4.939,4.939,0,0,0-.249,1.731v.157a4.114,4.114,0,0,0,.237,1.572c.146.338.336.384.522.384a.75.75,0,0,0,.4-.1.779.779,0,0,0,.245-.244v-3.52a1.007,1.007,0,0,0-.275-.315A.6.6,0,0,0,834.6,3700.262Z"/>
          <path id="Trazado_10264" data-name="Trazado 10264" d="M837.767,3694.747v11.722h-1.811l-.158-.916a2.417,2.417,0,0,1-.758.8,1.826,1.826,0,0,1-.992.275,2.264,2.264,0,0,1-2.007-1.1,5.3,5.3,0,0,1-.714-2.92v-.158a5.879,5.879,0,0,1,.714-3.088,2.245,2.245,0,0,1,2.022-1.173,1.7,1.7,0,0,1,.883.234,2.325,2.325,0,0,1,.7.661v-4.336h2.119m-3.171,10.22a1.158,1.158,0,0,0,.613-.162,1.228,1.228,0,0,0,.439-.478v-3.734a1.453,1.453,0,0,0-.443-.541,1,1,0,0,0-.6-.2.945.945,0,0,0-.9.714,5.285,5.285,0,0,0-.277,1.879v.158a4.492,4.492,0,0,0,.27,1.732.92.92,0,0,0,.894.628m3.981-11.03h-3.739v3.556a2.607,2.607,0,0,0-.775-.115,3.057,3.057,0,0,0-2.714,1.561,6.692,6.692,0,0,0-.832,3.51v.158a6.1,6.1,0,0,0,.844,3.36,3.078,3.078,0,0,0,2.687,1.471,2.659,2.659,0,0,0,1.206-.277l.02.119h3.3v-13.343Zm-3.981,10.219c-.068,0-.091,0-.15-.137a3.67,3.67,0,0,1-.2-1.412v-.158a4.524,4.524,0,0,1,.222-1.585.47.47,0,0,1,.114-.2h.006a.21.21,0,0,1,.146.041.528.528,0,0,1,.108.108v3.258a.249.249,0,0,1-.05.039.352.352,0,0,1-.192.043Z" fill="#fff"/>
        </g>
        <g id="Grupo_29007" data-name="Grupo 29007">
          <path id="Trazado_10265" data-name="Trazado 10265" d="M842.276,3707.033a3.339,3.339,0,0,1-2.793-1.3,5.173,5.173,0,0,1-.963-3.23v-.173a5.218,5.218,0,0,1,.958-3.232,3.609,3.609,0,0,1,5.569,0,5.189,5.189,0,0,1,.971,3.234v.173a5.157,5.157,0,0,1-.968,3.227A3.32,3.32,0,0,1,842.276,3707.033Zm-.015-6.779c-.193,0-.411.051-.568.434a4.4,4.4,0,0,0-.252,1.641v.173a4.385,4.385,0,0,0,.25,1.646.581.581,0,0,0,.585.421c.188,0,.4-.049.56-.423a4.334,4.334,0,0,0,.252-1.644v-.173a4.369,4.369,0,0,0-.253-1.643C842.675,3700.3,842.455,3700.254,842.261,3700.254Z"/>
          <path id="Trazado_10266" data-name="Trazado 10266" d="M842.261,3698.188a2.934,2.934,0,0,1,2.465,1.154,4.763,4.763,0,0,1,.886,2.987v.173a4.748,4.748,0,0,1-.882,2.979,3.222,3.222,0,0,1-4.926,0,4.757,4.757,0,0,1-.88-2.983v-.173a4.8,4.8,0,0,1,.876-2.987,2.912,2.912,0,0,1,2.461-1.154m.015,6.786a.967.967,0,0,0,.932-.669,4.689,4.689,0,0,0,.285-1.8v-.173a4.735,4.735,0,0,0-.285-1.8,1,1,0,0,0-1.89,0,4.8,4.8,0,0,0-.282,1.8v.173a4.754,4.754,0,0,0,.282,1.8.978.978,0,0,0,.958.669m-.015-7.6a3.694,3.694,0,0,0-3.106,1.474,5.611,5.611,0,0,0-1.041,3.477v.173a5.562,5.562,0,0,0,1.048,3.477,4.03,4.03,0,0,0,6.209,0,5.552,5.552,0,0,0,1.051-3.474v-.173a5.576,5.576,0,0,0-1.054-3.481,3.72,3.72,0,0,0-3.107-1.47Zm.015,6.786c-.095,0-.138,0-.212-.174a4.016,4.016,0,0,1-.218-1.488v-.173a4.053,4.053,0,0,1,.221-1.488c.075-.182.118-.182.194-.182s.123,0,.2.184a3.987,3.987,0,0,1,.222,1.486v.173a3.946,3.946,0,0,1-.22,1.485c-.076.177-.118.177-.187.177Z" fill="#fff"/>
        </g>
        <g id="Grupo_29008" data-name="Grupo 29008">
          <path id="Trazado_10267" data-name="Trazado 10267" d="M846.357,3706.875v-8.941h2.758l.022.3.005,0a1.588,1.588,0,0,1,1.115-.452,1.664,1.664,0,0,1,.349.036c.089.02.181.042.277.071l.326.1-.3,2.6-1.094-.033a.52.52,0,0,0-.326.1.744.744,0,0,0-.21.287v5.933Z"/>
          <path id="Trazado_10268" data-name="Trazado 10268" d="M850.256,3698.188a1.278,1.278,0,0,1,.264.026c.08.019.162.039.247.065l-.217,1.893-.721-.023a.925.925,0,0,0-.591.188,1.191,1.191,0,0,0-.364.527v5.6h-2.111v-8.13h1.976l.083,1.149a2.5,2.5,0,0,1,.6-.958,1.188,1.188,0,0,1,.837-.342m0-.81a1.975,1.975,0,0,0-.764.152h-3.539v9.751h3.731v-6.239a.264.264,0,0,1,.058-.069.192.192,0,0,1,.087-.013l.7.023.746.023.085-.74.217-1.894.078-.675L851,3697.5c-.1-.03-.2-.055-.3-.077a2.07,2.07,0,0,0-.445-.047Z" fill="#fff"/>
        </g>
        <g id="Grupo_29009" data-name="Grupo 29009">
          <path id="Trazado_10269" data-name="Trazado 10269" d="M854.684,3706.875v-11.752h3.779a4.006,4.006,0,0,1,3.138,1.42,5.231,5.231,0,0,1,1.219,3.554v1.811a5.222,5.222,0,0,1-1.219,3.556,4.022,4.022,0,0,1-3.138,1.411Zm3.779-2.464a1.108,1.108,0,0,0,.978-.62,3.556,3.556,0,0,0,.443-1.883v-1.826a3.513,3.513,0,0,0-.444-1.868,1.107,1.107,0,0,0-.977-.619h-.85v6.816Z"/>
          <path id="Trazado_10270" data-name="Trazado 10270" d="M858.462,3695.528a3.6,3.6,0,0,1,2.834,1.282,4.815,4.815,0,0,1,1.119,3.287v1.811a4.8,4.8,0,0,1-1.119,3.288,3.611,3.611,0,0,1-2.834,1.273h-3.373v-10.941h3.373m-1.254,9.288h1.254a1.509,1.509,0,0,0,1.323-.811,3.933,3.933,0,0,0,.5-2.1v-1.826a3.9,3.9,0,0,0-.5-2.081,1.51,1.51,0,0,0-1.323-.812h-1.254v7.627m1.254-10.1h-4.183v12.562h4.183a4.408,4.408,0,0,0,3.442-1.549,5.6,5.6,0,0,0,1.321-3.823V3700.1a5.621,5.621,0,0,0-1.319-3.82,4.394,4.394,0,0,0-3.444-1.559Zm-.444,3.281h.444c.183,0,.4.051.635.428a3.143,3.143,0,0,1,.382,1.655v1.826a3.171,3.171,0,0,1-.382,1.67c-.234.377-.452.428-.635.428h-.444V3698Z" fill="#fff"/>
        </g>
        <g id="Grupo_29010" data-name="Grupo 29010">
          <path id="Trazado_10271" data-name="Trazado 10271" d="M863.461,3706.875v-8.941h2.93v8.941Zm0-10.107v-2.426h2.93v2.426Z"/>
          <path id="Trazado_10272" data-name="Trazado 10272" d="M865.985,3694.747v1.615h-2.119v-1.615h2.119m0,3.592v8.13h-2.119v-8.13h2.119m.81-4.4h-3.739v3.235h3.739v-3.235Zm0,3.592h-3.739v9.751h3.739v-9.751Z" fill="#fff"/>
        </g>
        <g id="Grupo_29011" data-name="Grupo 29011">
          <path id="Trazado_10273" data-name="Trazado 10273" d="M870.17,3710.159a4.728,4.728,0,0,1-1.246-.18,5.783,5.783,0,0,1-1.208-.487l-.268-.145.532-2.426.472.251a3.851,3.851,0,0,0,.816.326,3.465,3.465,0,0,0,.887.107.947.947,0,0,0,.746-.251,1.134,1.134,0,0,0,.224-.626c-.031.017-.063.035-.095.051a2.321,2.321,0,0,1-1.085.254,2.648,2.648,0,0,1-2.346-1.287,5.71,5.71,0,0,1-.78-3.14v-.157a6.308,6.308,0,0,1,.774-3.3,2.635,2.635,0,0,1,2.367-1.367,2.149,2.149,0,0,1,1.212.349,2.372,2.372,0,0,1,.252.192l.059-.39h2.594v8.491a3.6,3.6,0,0,1-1.056,2.752A4.015,4.015,0,0,1,870.17,3710.159Zm.339-9.9c-.168,0-.36.053-.513.45a4.982,4.982,0,0,0-.247,1.737v.157a4.26,4.26,0,0,0,.231,1.58.513.513,0,0,0,.521.376.831.831,0,0,0,.416-.095.725.725,0,0,0,.224-.205v-3.62a.939.939,0,0,0-.255-.274A.659.659,0,0,0,870.509,3700.262Z"/>
          <path id="Trazado_10274" data-name="Trazado 10274" d="M869.96,3698.188a1.749,1.749,0,0,1,.989.282,2.5,2.5,0,0,1,.739.8l.143-.932h1.841v8.085a3.208,3.208,0,0,1-.928,2.458,3.612,3.612,0,0,1-2.574.872,4.281,4.281,0,0,1-1.138-.166,5.311,5.311,0,0,1-1.123-.451l.353-1.608a4.286,4.286,0,0,0,.9.361,3.854,3.854,0,0,0,.992.12,1.328,1.328,0,0,0,1.049-.387,1.787,1.787,0,0,0,.342-1.206v-.6a2.154,2.154,0,0,1-.7.6,1.9,1.9,0,0,1-.9.208,2.261,2.261,0,0,1-2.006-1.1,5.3,5.3,0,0,1-.714-2.92v-.158a5.879,5.879,0,0,1,.714-3.088,2.242,2.242,0,0,1,2.021-1.173m.541,6.779a1.206,1.206,0,0,0,.62-.151,1.162,1.162,0,0,0,.425-.436v-3.847a1.394,1.394,0,0,0-.432-.5,1.056,1.056,0,0,0-.605-.177.937.937,0,0,0-.891.711,5.328,5.328,0,0,0-.274,1.882v.158a4.605,4.605,0,0,0,.263,1.736.912.912,0,0,0,.894.624m-.541-7.589a3.052,3.052,0,0,0-2.713,1.562,6.692,6.692,0,0,0-.832,3.509v.158a6.11,6.11,0,0,0,.844,3.361,3.53,3.53,0,0,0,.4.514l-.192.874-.352,1.607-.131.594.535.291a6.111,6.111,0,0,0,1.294.52,5.054,5.054,0,0,0,1.354.2,4.407,4.407,0,0,0,3.129-1.091,4,4,0,0,0,1.183-3.049v-8.9h-3.346l-.016.107a2.619,2.619,0,0,0-1.16-.258Zm.541,6.778c-.078,0-.094,0-.147-.127a3.749,3.749,0,0,1-.2-1.422v-.158a4.587,4.587,0,0,1,.22-1.59.443.443,0,0,1,.11-.192h0a.289.289,0,0,1,.175.037.362.362,0,0,1,.076.069v3.329l-.021.013a.447.447,0,0,1-.214.041Z" fill="#fff"/>
        </g>
        <g id="Grupo_29012" data-name="Grupo 29012">
          <path id="Trazado_10275" data-name="Trazado 10275" d="M874.77,3706.875v-8.941H877.7v8.941Zm0-10.107v-2.426H877.7v2.426Z"/>
          <path id="Trazado_10276" data-name="Trazado 10276" d="M877.294,3694.747v1.615h-2.119v-1.615h2.119m0,3.592v8.13h-2.119v-8.13h2.119m.81-4.4h-3.739v3.235H878.1v-3.235Zm0,3.592h-3.739v9.751H878.1v-9.751Z" fill="#fff"/>
        </g>
        <g id="Grupo_29013" data-name="Grupo 29013">
          <path id="Trazado_10277" data-name="Trazado 10277" d="M881.314,3707.033a2.4,2.4,0,0,1-1.894-.77,3.371,3.371,0,0,1-.652-2.258v-3.751h-.985v-2.32h.985v-2.022H881.7v2.022H882.8v2.32H881.7v3.735a1,1,0,0,0,.078.506.757.757,0,0,0,.2.038.247.247,0,0,0,.05,0,1.7,1.7,0,0,0,.2-.052l.473-.152.252,2.377-.3.106a4.291,4.291,0,0,1-.637.17A3.918,3.918,0,0,1,881.314,3707.033Z"/>
          <path id="Trazado_10278" data-name="Trazado 10278" d="M881.292,3696.318v2.021h1.1v1.51h-1.1v4.141a1.349,1.349,0,0,0,.15.736.475.475,0,0,0,.414.218,1.313,1.313,0,0,0,.248-.019,2.146,2.146,0,0,0,.24-.064l.165,1.563a3.763,3.763,0,0,1-.575.155,3.6,3.6,0,0,1-.619.049,2,2,0,0,1-1.59-.632,2.979,2.979,0,0,1-.552-1.991v-4.156h-.984v-1.51h.984v-2.021h2.119m.81-.81h-3.739v2.021h-.984v3.13h.984V3704a3.7,3.7,0,0,0,.752,2.525,2.785,2.785,0,0,0,2.2.908,4.364,4.364,0,0,0,.761-.062,4.55,4.55,0,0,0,.7-.188l.6-.212-.067-.637-.165-1.563-.105-.986-.941.3c0-.029,0-.062,0-.1v-3.331h1.1v-3.13h-1.1v-2.021Z" fill="#fff"/>
        </g>
        <g id="Grupo_29014" data-name="Grupo 29014">
          <path id="Trazado_10279" data-name="Trazado 10279" d="M885.538,3707.033a2.6,2.6,0,0,1-2.008-.782,2.93,2.93,0,0,1-.705-2.058,2.669,2.669,0,0,1,.932-2.156,3.979,3.979,0,0,1,2.608-.752h.519v-.271a1.281,1.281,0,0,0-.154-.7.354.354,0,0,0-.335-.153.3.3,0,0,0-.273.1.851.851,0,0,0-.118.506v.406l-2.739-.01-.113-.329-.017-.1a2.556,2.556,0,0,1,.926-2.109,3.6,3.6,0,0,1,2.469-.838,3.352,3.352,0,0,1,2.357.844,3.129,3.129,0,0,1,.926,2.4v3.336a6.287,6.287,0,0,0,.078,1.017,5.891,5.891,0,0,0,.239.958l.181.535h-2.93l-.108-.239a3.73,3.73,0,0,1-.135-.35,2.88,2.88,0,0,1-.252.254A1.971,1.971,0,0,1,885.538,3707.033Zm.827-3.735c-.291,0-.394.1-.447.174a1.086,1.086,0,0,0-.17.637.7.7,0,0,0,.118.439.248.248,0,0,0,.22.1.77.77,0,0,0,.5-.172.9.9,0,0,0,.3-.38v-.8Z"/>
          <path id="Trazado_10280" data-name="Trazado 10280" d="M886.53,3698.188a2.943,2.943,0,0,1,2.081.737,2.723,2.723,0,0,1,.8,2.1v3.336a6.69,6.69,0,0,0,.083,1.083,6.269,6.269,0,0,0,.255,1.021h-2.1a3.593,3.593,0,0,1-.2-.586,4.87,4.87,0,0,1-.116-.646,2.881,2.881,0,0,1-.711,1,1.564,1.564,0,0,1-1.078.391,2.2,2.2,0,0,1-1.709-.65,2.537,2.537,0,0,1-.6-1.785,2.278,2.278,0,0,1,.785-1.846,3.591,3.591,0,0,1,2.349-.657h.924v-.676a1.634,1.634,0,0,0-.226-.936.761.761,0,0,0-.668-.327.7.7,0,0,0-.594.264,1.206,1.206,0,0,0-.2.751l-2.044-.008-.015-.045a2.165,2.165,0,0,1,.789-1.788,3.2,3.2,0,0,1,2.2-.737m-.444,6.869a1.188,1.188,0,0,0,.752-.26,1.3,1.3,0,0,0,.451-.627v-1.277h-.924a.886.886,0,0,0-.778.345,1.475,1.475,0,0,0-.244.872,1.09,1.09,0,0,0,.2.684.651.651,0,0,0,.541.263m.444-7.679a4,4,0,0,0-2.738.94,2.989,2.989,0,0,0-1.062,2.43l.005.113.036.108.183.552.6.047h.152c-.072.05-.141.1-.207.157a3.06,3.06,0,0,0-1.075,2.467,3.328,3.328,0,0,0,.811,2.333,2.989,2.989,0,0,0,2.306.912,2.379,2.379,0,0,0,1.446-.457l.133.3h3.759l-.362-1.07a5.363,5.363,0,0,1-.223-.89,5.933,5.933,0,0,1-.073-.955v-3.336a3.511,3.511,0,0,0-1.057-2.7,3.735,3.735,0,0,0-2.631-.952Zm-.122,3.5v-.114a.933.933,0,0,1,.018-.2h.008c-.014.005.028.094.041.315Zm-.161,2.831a.977.977,0,0,1,.118-.008h.114v.3a.567.567,0,0,1-.14.152.363.363,0,0,1-.174.081.612.612,0,0,1-.012-.13.716.716,0,0,1,.092-.4Z" fill="#fff"/>
        </g>
        <g id="Grupo_29015" data-name="Grupo 29015">
          <rect id="Rectángulo_5021" data-name="Rectángulo 5021" width="2.93" height="12.533" transform="translate(890.469 3694.342)"/>
          <path id="Trazado_10281" data-name="Trazado 10281" d="M892.993,3694.747v11.722h-2.119v-11.722h2.119m.81-.81h-3.739v13.343H893.8v-13.343Z" fill="#fff"/>
        </g>
      </g>
    </g>
    <g id="Grupo_29032" data-name="Grupo 29032">
      <g id="Grupo_29031" data-name="Grupo 29031">
        <g id="Grupo_29018" data-name="Grupo 29018">
          <path id="Trazado_10282" data-name="Trazado 10282" d="M828.115,3973.165a4.038,4.038,0,0,1-4.32-4.373v-3.322a4.368,4.368,0,0,1,1.159-3.217,4.146,4.146,0,0,1,3.041-1.156,4.242,4.242,0,0,1,2.974.954,3.449,3.449,0,0,1,1.009,2.714l0,.064-.116.333-.3.045h-2.4v-.405a1.41,1.41,0,0,0-.262-.966,1.132,1.132,0,0,0-.843-.268,1.152,1.152,0,0,0-.962.42,2.365,2.365,0,0,0-.368,1.468v3.336a2.366,2.366,0,0,0,.375,1.488,1.224,1.224,0,0,0,1.015.421,2.173,2.173,0,0,0,.815-.115,1.075,1.075,0,0,0,.291-.173v-1.644h-1.668v-2.276h4.6v4.8l-.075.106a4.262,4.262,0,0,1-1.488,1.249A5.239,5.239,0,0,1,828.115,3973.165Z"/>
          <path id="Trazado_10283" data-name="Trazado 10283" d="M827.995,3961.5a3.838,3.838,0,0,1,2.7.846,3.044,3.044,0,0,1,.879,2.409l-.015.045h-1.991a1.754,1.754,0,0,0-.376-1.248,1.509,1.509,0,0,0-1.135-.39,1.544,1.544,0,0,0-1.277.571,2.707,2.707,0,0,0-.458,1.721v3.336a2.729,2.729,0,0,0,.465,1.744,1.621,1.621,0,0,0,1.33.571,2.589,2.589,0,0,0,.97-.147,1.3,1.3,0,0,0,.541-.387v-2.209h-1.668V3966.9h3.787v4.26a3.837,3.837,0,0,1-1.349,1.127,4.805,4.805,0,0,1-2.281.474,3.64,3.64,0,0,1-3.915-3.968v-3.322a3.953,3.953,0,0,1,1.041-2.93,3.733,3.733,0,0,1,2.754-1.038m0-.81a4.531,4.531,0,0,0-3.326,1.274,4.748,4.748,0,0,0-1.279,3.5v3.322a4.442,4.442,0,0,0,4.725,4.778,5.618,5.618,0,0,0,2.663-.57,4.664,4.664,0,0,0,1.627-1.37l.15-.212v-5.329h-5.407v3.085h1.668v1.019l-.041.018a1.776,1.776,0,0,1-.66.086.8.8,0,0,1-.7-.273,1.949,1.949,0,0,1-.283-1.232v-3.336a1.938,1.938,0,0,1,.279-1.214.738.738,0,0,1,.646-.268.865.865,0,0,1,.552.142c.034.036.149.194.149.686v.81h3.385l.185-.555.038-.117.018-.168a3.834,3.834,0,0,0-1.137-3.017,4.623,4.623,0,0,0-3.25-1.063Z" fill="#fff"/>
        </g>
        <g id="Grupo_29019" data-name="Grupo 29019">
          <path id="Trazado_10284" data-name="Trazado 10284" d="M836.246,3973.165a3.406,3.406,0,0,1-2.811-1.266,4.855,4.855,0,0,1-.976-3.115v-.308a5.344,5.344,0,0,1,.932-3.239,3.212,3.212,0,0,1,2.728-1.322,3.023,3.023,0,0,1,2.521,1.142,4.652,4.652,0,0,1,.852,2.923v1.563h-4.056a2.093,2.093,0,0,0,.294.806.82.82,0,0,0,.764.352,2.9,2.9,0,0,0,.923-.124,3.885,3.885,0,0,0,.826-.419l.408-.263.844,2.033-.21.191a3.917,3.917,0,0,1-1.311.751A5.025,5.025,0,0,1,836.246,3973.165Zm.357-5.83a1.966,1.966,0,0,0-.16-.76.308.308,0,0,0-.324-.188.445.445,0,0,0-.439.26,2.232,2.232,0,0,0-.222.688Z"/>
          <path id="Trazado_10285" data-name="Trazado 10285" d="M836.119,3964.321a2.623,2.623,0,0,1,2.2.985,4.242,4.242,0,0,1,.767,2.675v1.156h-4.1a2.846,2.846,0,0,0,.409,1.436,1.232,1.232,0,0,0,1.1.534,3.257,3.257,0,0,0,1.056-.147,4.281,4.281,0,0,0,.913-.462l.548,1.322a3.507,3.507,0,0,1-1.176.67,4.6,4.6,0,0,1-1.589.27,3.01,3.01,0,0,1-2.495-1.112,4.455,4.455,0,0,1-.887-2.864v-.308a4.93,4.93,0,0,1,.853-3,2.811,2.811,0,0,1,2.4-1.157M835,3967.74h2.014v-.188a2.629,2.629,0,0,0-.207-1.157.713.713,0,0,0-.687-.414.851.851,0,0,0-.794.47,3.265,3.265,0,0,0-.326,1.289m1.12-4.229a3.639,3.639,0,0,0-3.054,1.486,5.735,5.735,0,0,0-1.011,3.479v.308a5.259,5.259,0,0,0,1.064,3.369,3.794,3.794,0,0,0,3.128,1.417,5.424,5.424,0,0,0,1.868-.32,4.317,4.317,0,0,0,1.444-.832l.419-.384-.217-.524-.548-1.322-.1-.241h.785v-1.966a5.041,5.041,0,0,0-.938-3.173,3.4,3.4,0,0,0-2.84-1.3Zm-.05,3.283.027,0a.891.891,0,0,1,.045.138h-.15c.015-.034.03-.063.044-.088a.179.179,0,0,1,.034-.048Zm-.1,3.153h1.841a3.09,3.09,0,0,1-.525.247,2.558,2.558,0,0,1-.793.1c-.311,0-.384-.109-.427-.174a1.093,1.093,0,0,1-.1-.176Z" fill="#fff"/>
        </g>
        <g id="Grupo_29020" data-name="Grupo 29020">
          <path id="Trazado_10286" data-name="Trazado 10286" d="M842.813,3973.165a3.47,3.47,0,0,1-2.53-.928,2.78,2.78,0,0,1-.909-2.144l0-.086.148-.305.276-.046h2.32l.009.4a.986.986,0,0,0,.19.668.751.751,0,0,0,.547.175.6.6,0,0,0,.411-.112.37.37,0,0,0,.108-.3.4.4,0,0,0-.148-.318,4.077,4.077,0,0,0-.969-.554,6.012,6.012,0,0,1-1.97-1.115,2.337,2.337,0,0,1-.753-1.785,2.571,2.571,0,0,1,.931-1.994,3.461,3.461,0,0,1,2.367-.8,3.563,3.563,0,0,1,2.452.828,2.63,2.63,0,0,1,.913,2.147l0,.057-.108.334-.309.045h-2.449v-.405a.989.989,0,0,0-.149-.585.383.383,0,0,0-.355-.145.454.454,0,0,0-.34.128.373.373,0,0,0-.127.293.345.345,0,0,0,.111.281,4.705,4.705,0,0,0,.986.547,5.475,5.475,0,0,1,2.019,1.116,2.435,2.435,0,0,1,.754,1.843,2.476,2.476,0,0,1-.982,2.016A3.824,3.824,0,0,1,842.813,3973.165Z"/>
          <path id="Trazado_10287" data-name="Trazado 10287" d="M842.844,3964.321a3.165,3.165,0,0,1,2.183.725,2.237,2.237,0,0,1,.778,1.83l-.015.045h-2.044a1.377,1.377,0,0,0-.226-.823.786.786,0,0,0-.683-.311.857.857,0,0,0-.62.24.777.777,0,0,0-.252.585.742.742,0,0,0,.248.583,5.169,5.169,0,0,0,1.082.613,5.251,5.251,0,0,1,1.912,1.041,2.04,2.04,0,0,1,.628,1.551,2.08,2.08,0,0,1-.83,1.7,3.422,3.422,0,0,1-2.191.661,3.064,3.064,0,0,1-2.247-.812,2.386,2.386,0,0,1-.789-1.841l.023-.045h1.924a1.315,1.315,0,0,0,.315.951,1.141,1.141,0,0,0,.827.289.967.967,0,0,0,.687-.222.776.776,0,0,0,.237-.6.81.81,0,0,0-.278-.617,4.664,4.664,0,0,0-1.075-.623,5.7,5.7,0,0,1-1.864-1.045,1.938,1.938,0,0,1-.623-1.488,2.176,2.176,0,0,1,.793-1.691,3.061,3.061,0,0,1,2.1-.7m0-.81a3.859,3.859,0,0,0-2.635.9,3.005,3.005,0,0,0-1.068,2.3,2.759,2.759,0,0,0,.883,2.082,4.447,4.447,0,0,0,.594.46H839.3l-.225.442-.023.045-.082.159-.007.179a3.18,3.18,0,0,0,1.032,2.45,3.858,3.858,0,0,0,2.814,1.043,4.215,4.215,0,0,0,2.695-.837,2.9,2.9,0,0,0,1.136-2.333,2.832,2.832,0,0,0-.88-2.139,4.208,4.208,0,0,0-.7-.53h1.306l.184-.554.037-.111.019-.162a3.056,3.056,0,0,0-1.049-2.463,3.957,3.957,0,0,0-2.721-.93Zm.071,3.19a1.076,1.076,0,0,1-.162-.109.115.115,0,0,0,.037.006h.047l.043,0a.428.428,0,0,1,.035.1Zm-.312,3.729a.557.557,0,0,1-.059-.232,2.239,2.239,0,0,1,.422.266l0,.021a.681.681,0,0,1-.1.006.446.446,0,0,1-.264-.061Z" fill="#fff"/>
        </g>
        <g id="Grupo_29021" data-name="Grupo 29021">
          <path id="Trazado_10288" data-name="Trazado 10288" d="M849.435,3973.165a2.4,2.4,0,0,1-1.9-.769,3.328,3.328,0,0,1-.652-2.259v-3.75H845.9v-2.322h.985v-2.02h2.929v2.02h1.1v2.322h-1.1v3.735a.992.992,0,0,0,.079.508.739.739,0,0,0,.2.035.266.266,0,0,0,.055-.005,1.991,1.991,0,0,0,.2-.053l.47-.145.251,2.371-.3.1a4.044,4.044,0,0,1-.637.171A3.893,3.893,0,0,1,849.435,3973.165Z"/>
          <path id="Trazado_10289" data-name="Trazado 10289" d="M849.412,3962.45v2.021h1.105v1.51h-1.105v4.141a1.337,1.337,0,0,0,.15.736.475.475,0,0,0,.414.219,1.311,1.311,0,0,0,.247-.019,2.4,2.4,0,0,0,.241-.064l.165,1.563a3.759,3.759,0,0,1-.575.154,3.608,3.608,0,0,1-.619.049,2,2,0,0,1-1.59-.631,2.981,2.981,0,0,1-.552-1.992v-4.156h-.984v-1.51h.984v-2.021h2.119m.81-.81h-3.739v2.021H845.5v3.13h.984v3.346a3.7,3.7,0,0,0,.752,2.525,2.783,2.783,0,0,0,2.2.908,4.365,4.365,0,0,0,.76-.061,4.749,4.749,0,0,0,.7-.188l.6-.212-.067-.637-.166-1.564-.1-.988-.941.3c0-.029,0-.062,0-.1v-3.331h1.105v-3.13h-1.105v-2.021Z" fill="#fff"/>
        </g>
        <g id="Grupo_29022" data-name="Grupo 29022">
          <path id="Trazado_10290" data-name="Trazado 10290" d="M854.792,3973.165a3.34,3.34,0,0,1-2.793-1.3,5.172,5.172,0,0,1-.964-3.231v-.172a5.225,5.225,0,0,1,.958-3.233,3.61,3.61,0,0,1,5.57,0,5.185,5.185,0,0,1,.971,3.235v.172a5.165,5.165,0,0,1-.967,3.227A3.32,3.32,0,0,1,854.792,3973.165Zm-.015-6.778c-.192,0-.411.051-.569.433a4.432,4.432,0,0,0-.25,1.642v.172a4.4,4.4,0,0,0,.249,1.646.582.582,0,0,0,.585.421c.187,0,.4-.05.56-.423a4.311,4.311,0,0,0,.252-1.644v-.172a4.347,4.347,0,0,0-.253-1.644C855.19,3966.438,854.971,3966.387,854.777,3966.387Z"/>
          <path id="Trazado_10291" data-name="Trazado 10291" d="M854.777,3964.321a2.933,2.933,0,0,1,2.465,1.153,4.768,4.768,0,0,1,.887,2.988v.172a4.752,4.752,0,0,1-.883,2.98,3.223,3.223,0,0,1-4.926,0,4.759,4.759,0,0,1-.879-2.984v-.172a4.814,4.814,0,0,1,.875-2.988,2.911,2.911,0,0,1,2.461-1.153m.015,6.786a.966.966,0,0,0,.932-.669,4.678,4.678,0,0,0,.286-1.8v-.172a4.718,4.718,0,0,0-.286-1.8,1,1,0,0,0-1.89,0,4.807,4.807,0,0,0-.281,1.8v.172a4.766,4.766,0,0,0,.281,1.8.979.979,0,0,0,.958.669m-.015-7.6a3.7,3.7,0,0,0-3.106,1.473,5.621,5.621,0,0,0-1.04,3.478v.172a5.565,5.565,0,0,0,1.047,3.478,4.032,4.032,0,0,0,6.21,0,5.553,5.553,0,0,0,1.051-3.474v-.172a5.572,5.572,0,0,0-1.055-3.481,3.716,3.716,0,0,0-3.107-1.47Zm.015,6.786c-.095,0-.138,0-.212-.174a4.021,4.021,0,0,1-.217-1.489v-.172a4.06,4.06,0,0,1,.22-1.489c.076-.182.118-.182.194-.182s.123,0,.2.184a3.966,3.966,0,0,1,.223,1.487v.172a3.952,3.952,0,0,1-.221,1.486c-.076.177-.118.177-.187.177Z" fill="#fff"/>
        </g>
        <g id="Grupo_29023" data-name="Grupo 29023">
          <path id="Trazado_10292" data-name="Trazado 10292" d="M858.873,3973.007v-8.942h2.759l.021.305,0,0a1.6,1.6,0,0,1,1.116-.452,1.7,1.7,0,0,1,.35.036c.093.022.183.044.277.071l.327.1-.3,2.6-1.094-.035a.518.518,0,0,0-.326.1.758.758,0,0,0-.211.289v5.931Z"/>
          <path id="Trazado_10293" data-name="Trazado 10293" d="M862.773,3964.321a1.221,1.221,0,0,1,.263.026c.08.018.162.039.248.064l-.218,1.894-.721-.023a.92.92,0,0,0-.59.188,1.187,1.187,0,0,0-.365.526v5.606h-2.111v-8.131h1.976l.083,1.149a2.5,2.5,0,0,1,.6-.957,1.188,1.188,0,0,1,.838-.342m0-.81a1.975,1.975,0,0,0-.765.151h-3.539v9.751H862.2v-6.238a.271.271,0,0,1,.058-.07.216.216,0,0,1,.087-.012l.7.022.746.024.085-.741.217-1.894.078-.677-.654-.192c-.1-.03-.2-.055-.3-.077a2.071,2.071,0,0,0-.442-.046Z" fill="#fff"/>
        </g>
        <g id="Grupo_29024" data-name="Grupo 29024">
          <path id="Trazado_10294" data-name="Trazado 10294" d="M867.2,3973.007v-11.752h3.779a4,4,0,0,1,3.138,1.421,5.225,5.225,0,0,1,1.22,3.553v1.812a5.21,5.21,0,0,1-1.22,3.554,4.019,4.019,0,0,1-3.138,1.412Zm3.779-2.464a1.11,1.11,0,0,0,.979-.62,3.56,3.56,0,0,0,.441-1.882v-1.826a3.523,3.523,0,0,0-.442-1.869,1.108,1.108,0,0,0-.978-.619h-.849v6.816Z"/>
          <path id="Trazado_10295" data-name="Trazado 10295" d="M870.979,3961.661a3.6,3.6,0,0,1,2.833,1.281,4.816,4.816,0,0,1,1.119,3.287v1.812a4.8,4.8,0,0,1-1.119,3.287,3.61,3.61,0,0,1-2.833,1.274H867.6v-10.941h3.374m-1.255,9.288h1.255a1.508,1.508,0,0,0,1.322-.812,3.921,3.921,0,0,0,.5-2.1v-1.827a3.889,3.889,0,0,0-.5-2.081,1.507,1.507,0,0,0-1.322-.811h-1.255v7.627m1.255-10.1h-4.184v12.561h4.184a4.4,4.4,0,0,0,3.441-1.549,5.6,5.6,0,0,0,1.321-3.822v-1.812a5.621,5.621,0,0,0-1.319-3.82,4.394,4.394,0,0,0-3.443-1.558Zm-.445,3.281h.445c.182,0,.4.051.634.428a3.126,3.126,0,0,1,.382,1.654v1.827a3.16,3.16,0,0,1-.382,1.669c-.234.378-.452.429-.634.429h-.445v-6.007Z" fill="#fff"/>
        </g>
        <g id="Grupo_29025" data-name="Grupo 29025">
          <path id="Trazado_10296" data-name="Trazado 10296" d="M875.977,3973.007v-8.942h2.929v8.942Zm0-10.108v-2.425h2.929v2.425Z"/>
          <path id="Trazado_10297" data-name="Trazado 10297" d="M878.5,3960.879v1.615h-2.119v-1.615H878.5m0,3.592v8.131h-2.119v-8.131H878.5m.81-4.4h-3.739v3.235h3.739v-3.235Zm0,3.592h-3.739v9.751h3.739v-9.751Z" fill="#fff"/>
        </g>
        <g id="Grupo_29026" data-name="Grupo 29026">
          <path id="Trazado_10298" data-name="Trazado 10298" d="M882.687,3976.291a4.664,4.664,0,0,1-1.248-.182,5.651,5.651,0,0,1-1.208-.484l-.267-.145.532-2.425.471.249a3.983,3.983,0,0,0,.818.328,3.49,3.49,0,0,0,.887.1.949.949,0,0,0,.746-.251,1.152,1.152,0,0,0,.224-.627c-.032.018-.063.036-.094.052a2.317,2.317,0,0,1-1.087.254,2.654,2.654,0,0,1-2.346-1.286,5.716,5.716,0,0,1-.779-3.14v-.157a6.306,6.306,0,0,1,.773-3.3,2.636,2.636,0,0,1,2.368-1.367,2.151,2.151,0,0,1,1.211.35,2.543,2.543,0,0,1,.252.192l.06-.392h2.594v8.492a3.616,3.616,0,0,1-1.056,2.753A4.022,4.022,0,0,1,882.687,3976.291Zm.338-9.9c-.168,0-.359.053-.512.45a4.978,4.978,0,0,0-.247,1.737v.157a4.244,4.244,0,0,0,.23,1.579.512.512,0,0,0,.522.375.837.837,0,0,0,.416-.094.735.735,0,0,0,.223-.205v-3.62a.908.908,0,0,0-.256-.275A.649.649,0,0,0,883.025,3966.4Z"/>
          <path id="Trazado_10299" data-name="Trazado 10299" d="M882.476,3964.321a1.754,1.754,0,0,1,.989.281,2.506,2.506,0,0,1,.739.8l.144-.932h1.84v8.086a3.2,3.2,0,0,1-.928,2.457,3.609,3.609,0,0,1-2.573.872,4.243,4.243,0,0,1-1.139-.166,5.262,5.262,0,0,1-1.123-.451l.353-1.607a4.231,4.231,0,0,0,.9.36,3.8,3.8,0,0,0,.992.121,1.328,1.328,0,0,0,1.048-.388,1.785,1.785,0,0,0,.342-1.2v-.6a2.164,2.164,0,0,1-.7.6,1.922,1.922,0,0,1-.9.207,2.26,2.26,0,0,1-2.006-1.1,5.3,5.3,0,0,1-.714-2.92v-.157a5.886,5.886,0,0,1,.714-3.089,2.241,2.241,0,0,1,2.021-1.172m.541,6.778a1.213,1.213,0,0,0,.62-.15,1.173,1.173,0,0,0,.425-.436v-3.848a1.362,1.362,0,0,0-.432-.5,1.049,1.049,0,0,0-.6-.177.937.937,0,0,0-.891.71,5.358,5.358,0,0,0-.274,1.883v.157a4.611,4.611,0,0,0,.263,1.737.912.912,0,0,0,.894.623m-.541-7.588a3.053,3.053,0,0,0-2.713,1.561,6.692,6.692,0,0,0-.832,3.51v.157a6.1,6.1,0,0,0,.845,3.361,3.6,3.6,0,0,0,.4.515l-.191.873-.353,1.608-.131.594.535.291a6.1,6.1,0,0,0,1.295.52,5.1,5.1,0,0,0,1.354.2,4.4,4.4,0,0,0,3.128-1.091,4,4,0,0,0,1.183-3.048v-8.9h-3.345l-.017.108a2.6,2.6,0,0,0-1.16-.258Zm.541,6.778c-.077,0-.093,0-.147-.128a3.763,3.763,0,0,1-.2-1.422v-.157a4.589,4.589,0,0,1,.22-1.591.451.451,0,0,1,.11-.192h0a.289.289,0,0,1,.175.037.437.437,0,0,1,.076.069v3.329l-.021.014a.447.447,0,0,1-.214.041Z" fill="#fff"/>
        </g>
        <g id="Grupo_29027" data-name="Grupo 29027">
          <path id="Trazado_10300" data-name="Trazado 10300" d="M887.286,3973.007v-8.942h2.93v8.942Zm0-10.108v-2.425h2.93v2.425Z"/>
          <path id="Trazado_10301" data-name="Trazado 10301" d="M889.81,3960.879v1.615h-2.119v-1.615h2.119m0,3.592v8.131h-2.119v-8.131h2.119m.81-4.4h-3.739v3.235h3.739v-3.235Zm0,3.592h-3.739v9.751h3.739v-9.751Z" fill="#fff"/>
        </g>
        <g id="Grupo_29028" data-name="Grupo 29028">
          <path id="Trazado_10302" data-name="Trazado 10302" d="M893.831,3973.165a2.394,2.394,0,0,1-1.894-.769,3.323,3.323,0,0,1-.653-2.259v-3.75H890.3v-2.322h.984v-2.02h2.93v2.02h1.1v2.322h-1.1v3.735a.989.989,0,0,0,.078.506.7.7,0,0,0,.2.037.266.266,0,0,0,.055-.005,1.987,1.987,0,0,0,.2-.053l.471-.145.251,2.371-.3.1a4.014,4.014,0,0,1-.637.171A3.885,3.885,0,0,1,893.831,3973.165Z"/>
          <path id="Trazado_10303" data-name="Trazado 10303" d="M893.808,3962.45v2.021h1.105v1.51h-1.105v4.141a1.346,1.346,0,0,0,.15.736.477.477,0,0,0,.414.219,1.315,1.315,0,0,0,.248-.019,2.39,2.39,0,0,0,.24-.064l.166,1.563a3.789,3.789,0,0,1-.575.154,3.619,3.619,0,0,1-.62.049,2,2,0,0,1-1.59-.631,2.981,2.981,0,0,1-.552-1.992v-4.156h-.984v-1.51h.984v-2.021h2.119m.81-.81h-3.739v2.021H889.9v3.13h.984v3.346a3.7,3.7,0,0,0,.752,2.525,2.783,2.783,0,0,0,2.2.908,4.357,4.357,0,0,0,.76-.061,4.684,4.684,0,0,0,.7-.188l.6-.212-.067-.637-.165-1.564-.105-.988-.941.3c0-.029,0-.062,0-.1v-3.331h1.105v-3.13h-1.105v-2.021Z" fill="#fff"/>
        </g>
        <g id="Grupo_29029" data-name="Grupo 29029">
          <path id="Trazado_10304" data-name="Trazado 10304" d="M898.055,3973.165a2.6,2.6,0,0,1-2.008-.78,2.937,2.937,0,0,1-.705-2.06,2.68,2.68,0,0,1,.929-2.156,3.994,3.994,0,0,1,2.61-.752h.518v-.271a1.287,1.287,0,0,0-.153-.705.358.358,0,0,0-.335-.152.3.3,0,0,0-.272.1.849.849,0,0,0-.119.5v.407l-2.744-.01-.108-.331-.017-.1a2.565,2.565,0,0,1,.924-2.109,3.611,3.611,0,0,1,2.471-.839,3.346,3.346,0,0,1,2.357.845,3.122,3.122,0,0,1,.926,2.4v3.337a6.536,6.536,0,0,0,.077,1.018,6.052,6.052,0,0,0,.24.956l.181.535H899.9l-.108-.24c-.049-.112-.094-.227-.134-.349a3.031,3.031,0,0,1-.252.254A1.965,1.965,0,0,1,898.055,3973.165Zm.826-3.734c-.29,0-.394.1-.446.173a1.08,1.08,0,0,0-.17.638.7.7,0,0,0,.117.438.247.247,0,0,0,.221.1.776.776,0,0,0,.5-.174.893.893,0,0,0,.295-.378v-.8Z"/>
          <path id="Trazado_10305" data-name="Trazado 10305" d="M899.046,3964.321a2.945,2.945,0,0,1,2.082.736,2.727,2.727,0,0,1,.8,2.1v3.337a6.8,6.8,0,0,0,.083,1.082,6.266,6.266,0,0,0,.256,1.022h-2.1a3.539,3.539,0,0,1-.2-.586,4.917,4.917,0,0,1-.116-.647,2.877,2.877,0,0,1-.71,1,1.564,1.564,0,0,1-1.079.391,2.2,2.2,0,0,1-1.709-.65,2.534,2.534,0,0,1-.6-1.785,2.275,2.275,0,0,1,.785-1.845,3.591,3.591,0,0,1,2.349-.657h.924v-.677a1.637,1.637,0,0,0-.226-.936.76.76,0,0,0-.668-.326.7.7,0,0,0-.594.263,1.211,1.211,0,0,0-.2.752l-2.045-.008-.015-.045a2.168,2.168,0,0,1,.789-1.789,3.2,3.2,0,0,1,2.2-.736m-.443,6.868a1.185,1.185,0,0,0,.751-.259,1.3,1.3,0,0,0,.451-.628v-1.277h-.924a.885.885,0,0,0-.778.346,1.471,1.471,0,0,0-.244.871,1.088,1.088,0,0,0,.2.685.65.65,0,0,0,.541.262m.443-7.678a4,4,0,0,0-2.738.939,2.989,2.989,0,0,0-1.062,2.43l.005.114.036.107.183.553.6.047h.152c-.072.05-.141.1-.206.158a3.059,3.059,0,0,0-1.076,2.466,3.321,3.321,0,0,0,.812,2.333,2.986,2.986,0,0,0,2.3.912,2.37,2.37,0,0,0,1.446-.457l.134.3h3.758l-.362-1.07a5.547,5.547,0,0,1-.223-.89,5.915,5.915,0,0,1-.073-.954v-3.337a3.508,3.508,0,0,0-1.056-2.7,3.739,3.739,0,0,0-2.632-.952Zm-.122,3.5v-.113a.943.943,0,0,1,.018-.2h.008c-.014,0,.028.094.041.315Zm-.161,2.832a.874.874,0,0,1,.118-.009h.114v.3a.548.548,0,0,1-.14.151.367.367,0,0,1-.174.082.619.619,0,0,1-.012-.131.715.715,0,0,1,.092-.4Z" fill="#fff"/>
        </g>
        <g id="Grupo_29030" data-name="Grupo 29030">
          <rect id="Rectángulo_5022" data-name="Rectángulo 5022" width="2.93" height="12.533" transform="translate(902.984 3960.474)"/>
          <path id="Trazado_10306" data-name="Trazado 10306" d="M905.509,3960.879V3972.6H903.39v-11.723h2.119m.81-.81H902.58v13.343h3.739v-13.343Z" fill="#fff"/>
        </g>
      </g>
    </g>
    <g id="Grupo_29053" data-name="Grupo 29053">
      <g id="Grupo_29052" data-name="Grupo 29052">
        <g id="Grupo_29033" data-name="Grupo 29033">
          <path id="Trazado_10307" data-name="Trazado 10307" d="M488.5,3972.076v-11.752h4.065a3.919,3.919,0,0,1,2.894,1.085,4.207,4.207,0,0,1,0,5.63,3.931,3.931,0,0,1-2.893,1.077h-1.136v3.96Zm4.065-6.431a.86.86,0,0,0,.758-.344,1.752,1.752,0,0,0,.295-1.063,1.845,1.845,0,0,0-.3-1.09.847.847,0,0,0-.756-.352h-1.136v2.849Z"/>
          <path id="Trazado_10308" data-name="Trazado 10308" d="M492.562,3960.729a3.517,3.517,0,0,1,2.607.966,3.8,3.8,0,0,1,0,5.057,3.525,3.525,0,0,1-2.607.959h-1.541v3.96H488.9v-10.942h3.66m-1.541,5.321h1.541a1.257,1.257,0,0,0,1.085-.511,2.147,2.147,0,0,0,.372-1.3,2.222,2.222,0,0,0-.372-1.326,1.247,1.247,0,0,0-1.085-.522h-1.541v3.659m1.541-6.131h-4.47v12.562h3.739v-3.96h.731a4.324,4.324,0,0,0,3.179-1.2,4.609,4.609,0,0,0,0-6.2,4.311,4.311,0,0,0-3.181-1.205Zm-.731,3.282h.731a.44.44,0,0,1,.425.181,1.456,1.456,0,0,1,.222.857,1.362,1.362,0,0,1-.216.823.451.451,0,0,1-.431.178h-.731V3963.2Z" fill="#fff"/>
        </g>
        <g id="Grupo_29034" data-name="Grupo 29034">
          <path id="Trazado_10309" data-name="Trazado 10309" d="M496.944,3972.076v-8.941H499.7l.022.3,0,0a1.589,1.589,0,0,1,1.115-.453,1.621,1.621,0,0,1,.349.037c.089.019.179.042.273.069l.33.095-.3,2.606-1.1-.035a.521.521,0,0,0-.326.1.764.764,0,0,0-.21.289v5.931Z"/>
          <path id="Trazado_10310" data-name="Trazado 10310" d="M500.843,3963.39a1.2,1.2,0,0,1,.263.026c.08.018.162.039.248.064l-.218,1.894-.722-.023a.924.924,0,0,0-.59.188,1.194,1.194,0,0,0-.364.526v5.606h-2.112v-8.131h1.977l.082,1.149a2.514,2.514,0,0,1,.6-.958,1.192,1.192,0,0,1,.838-.341m0-.81a1.978,1.978,0,0,0-.764.151h-3.541v9.751h3.732v-6.239a.282.282,0,0,1,.058-.069.207.207,0,0,1,.086-.012l.7.022.745.024.085-.741.218-1.893.078-.676-.651-.193c-.1-.031-.2-.056-.3-.078a2.067,2.067,0,0,0-.444-.046Z" fill="#fff"/>
        </g>
        <g id="Grupo_29035" data-name="Grupo 29035">
          <path id="Trazado_10311" data-name="Trazado 10311" d="M501.828,3972.076v-8.941h2.929v8.941Zm0-10.107v-2.426h2.929v2.426Z"/>
          <path id="Trazado_10312" data-name="Trazado 10312" d="M504.352,3959.948v1.615h-2.119v-1.615h2.119m0,3.592v8.131h-2.119v-8.131h2.119m.81-4.4h-3.739v3.235h3.739v-3.235Zm0,3.592h-3.739v9.751h3.739v-9.751Z" fill="#fff"/>
        </g>
        <g id="Grupo_29036" data-name="Grupo 29036">
          <path id="Trazado_10313" data-name="Trazado 10313" d="M509.553,3972.076v-5.343a2.309,2.309,0,0,0-.166-1.091.327.327,0,0,0-.323-.179.818.818,0,0,0-.429.109.984.984,0,0,0-.279.246v6.258h-2.928v-8.941h2.755l.039.489a2.662,2.662,0,0,1,.3-.231,2.357,2.357,0,0,1,1.343-.409,2.3,2.3,0,0,1,1.954.974,4.663,4.663,0,0,1,.668,2.775v5.343Z"/>
          <path id="Trazado_10314" data-name="Trazado 10314" d="M509.86,3963.39a1.9,1.9,0,0,1,1.627.807,4.335,4.335,0,0,1,.59,2.536v4.938h-2.119v-4.938a2.75,2.75,0,0,0-.221-1.295.73.73,0,0,0-.673-.38,1.231,1.231,0,0,0-.635.165,1.434,1.434,0,0,0-.477.466v5.982h-2.12v-8.131h1.977l.09,1.135a2.756,2.756,0,0,1,.846-.947,1.946,1.946,0,0,1,1.115-.338m0-.81a2.765,2.765,0,0,0-1.29.31l-.013-.16h-3.535v9.751h3.74v-6.5a.467.467,0,0,1,.075-.054.41.41,0,0,1,.209-.055,2.419,2.419,0,0,1,.1.865v5.748h3.739v-5.748a5.038,5.038,0,0,0-.746-3.014,2.72,2.72,0,0,0-2.281-1.139Z" fill="#fff"/>
        </g>
        <g id="Grupo_29037" data-name="Grupo 29037">
          <path id="Trazado_10315" data-name="Trazado 10315" d="M516.436,3972.234a3.261,3.261,0,0,1-2.771-1.31,5.247,5.247,0,0,1-.933-3.206v-.217a5.261,5.261,0,0,1,.932-3.2,3.25,3.25,0,0,1,2.764-1.318,3.128,3.128,0,0,1,2.4.977,3.552,3.552,0,0,1,.866,2.561v.074l-.129.325-.29.037h-2.328v-.405a1.841,1.841,0,0,0-.181-.891.35.35,0,0,0-.339-.207c-.2,0-.4.05-.538.412a4.747,4.747,0,0,0-.229,1.634v.217a4.775,4.775,0,0,0,.228,1.651.528.528,0,0,0,.547.4.374.374,0,0,0,.351-.162,1.309,1.309,0,0,0,.161-.725v-.405h2.569l.155.3.024.138a3.153,3.153,0,0,1-.911,2.379A3.2,3.2,0,0,1,516.436,3972.234Z"/>
          <path id="Trazado_10316" data-name="Trazado 10316" d="M516.428,3963.39a2.723,2.723,0,0,1,2.1.845,3.152,3.152,0,0,1,.759,2.281l-.015.037h-1.924a2.211,2.211,0,0,0-.233-1.089.748.748,0,0,0-.691-.414.924.924,0,0,0-.917.673,5.118,5.118,0,0,0-.255,1.778v.217a5.136,5.136,0,0,0,.255,1.8.928.928,0,0,0,.925.661.78.78,0,0,0,.683-.335,1.668,1.668,0,0,0,.233-.958h1.917l.022.045a2.75,2.75,0,0,1-.792,2.085,2.8,2.8,0,0,1-2.063.816,2.863,2.863,0,0,1-2.446-1.146,4.836,4.836,0,0,1-.853-2.965v-.217a4.846,4.846,0,0,1,.853-2.958,2.848,2.848,0,0,1,2.438-1.153m0-.81a3.632,3.632,0,0,0-3.09,1.482,5.655,5.655,0,0,0-1.011,3.439v.217a5.649,5.649,0,0,0,1.013,3.449,3.646,3.646,0,0,0,3.1,1.472,3.591,3.591,0,0,0,2.635-1.053,3.54,3.54,0,0,0,1.03-2.673l0-.185-.084-.166-.225-.444-.52-.045h-2.727v.81a.92.92,0,0,1-.088.5c-.112-.013-.132-.013-.187-.156a4.278,4.278,0,0,1-.2-1.5v-.217a4.377,4.377,0,0,1,.2-1.49c.053-.139.076-.15.142-.151a1.421,1.421,0,0,1,.132.693v.81h3.28l.2-.506.057-.14.017-.188a3.945,3.945,0,0,0-.974-2.844,3.517,3.517,0,0,0-2.7-1.1Z" fill="#fff"/>
        </g>
        <g id="Grupo_29038" data-name="Grupo 29038">
          <path id="Trazado_10317" data-name="Trazado 10317" d="M520.059,3972.076v-8.941h2.928v8.941Zm0-10.107v-2.426h2.928v2.426Z"/>
          <path id="Trazado_10318" data-name="Trazado 10318" d="M522.583,3959.948v1.615h-2.119v-1.615h2.119m0,3.592v8.131h-2.119v-8.131h2.119m.81-4.4h-3.739v3.235h3.739v-3.235Zm0,3.592h-3.739v9.751h3.739v-9.751Z" fill="#fff"/>
        </g>
        <g id="Grupo_29039" data-name="Grupo 29039">
          <path id="Trazado_10319" data-name="Trazado 10319" d="M523.7,3975.2v-12.067H526.4l.033.3a2.249,2.249,0,0,1,.194-.135,2.2,2.2,0,0,1,1.175-.317,2.642,2.642,0,0,1,2.371,1.368,6.268,6.268,0,0,1,.777,3.3v.158a5.683,5.683,0,0,1-.783,3.14,2.663,2.663,0,0,1-2.35,1.285,2.366,2.366,0,0,1-1.1-.253c-.034-.017-.067-.035-.1-.054v3.275Zm2.921-5.728a.667.667,0,0,0,.217.2.869.869,0,0,0,.43.1.521.521,0,0,0,.519-.385,4.085,4.085,0,0,0,.241-1.577v-.158a4.8,4.8,0,0,0-.256-1.729c-.185-.459-.414-.459-.511-.459a.667.667,0,0,0-.393.111.863.863,0,0,0-.247.281Z"/>
          <path id="Trazado_10320" data-name="Trazado 10320" d="M527.8,3963.39a2.255,2.255,0,0,1,2.026,1.172,5.866,5.866,0,0,1,.717,3.089v.157a5.28,5.28,0,0,1-.717,2.92,2.272,2.272,0,0,1-2.011,1.1,1.958,1.958,0,0,1-.916-.207,2.024,2.024,0,0,1-.692-.6v3.779H524.1V3963.54h1.938l.091.835a2.246,2.246,0,0,1,.713-.73,1.8,1.8,0,0,1,.962-.255m-.541,6.786a.925.925,0,0,0,.891-.628,4.451,4.451,0,0,0,.274-1.74v-.157a5.14,5.14,0,0,0-.286-1.88.948.948,0,0,0-.886-.713,1.065,1.065,0,0,0-.624.184,1.289,1.289,0,0,0-.421.515v3.832a1.1,1.1,0,0,0,.421.437,1.263,1.263,0,0,0,.631.15m.541-7.6a2.7,2.7,0,0,0-1.034.195l0-.045h-3.476v12.877h3.731v-3.073a2.95,2.95,0,0,0,.8.1,3.084,3.084,0,0,0,2.689-1.469,6.079,6.079,0,0,0,.849-3.362v-.157a6.673,6.673,0,0,0-.836-3.512,3.065,3.065,0,0,0-2.717-1.559Zm-.783,3.4a.385.385,0,0,1,.075-.071.255.255,0,0,1,.16-.038h0c.015,0,.069.042.135.205a4.42,4.42,0,0,1,.227,1.578v.157a3.625,3.625,0,0,1-.206,1.415c-.063.143-.088.143-.149.143a.5.5,0,0,1-.231-.044l-.011-.007v-3.338Z" fill="#fff"/>
        </g>
        <g id="Grupo_29040" data-name="Grupo 29040">
          <path id="Trazado_10321" data-name="Trazado 10321" d="M531.368,3972.076v-8.941H534.3v8.941Zm0-10.107v-2.426H534.3v2.426Z"/>
          <path id="Trazado_10322" data-name="Trazado 10322" d="M533.892,3959.948v1.615h-2.119v-1.615h2.119m0,3.592v8.131h-2.119v-8.131h2.119m.81-4.4h-3.739v3.235H534.7v-3.235Zm0,3.592h-3.739v9.751H534.7v-9.751Z" fill="#fff"/>
        </g>
        <g id="Grupo_29041" data-name="Grupo 29041">
          <path id="Trazado_10323" data-name="Trazado 10323" d="M537.364,3972.234a2.6,2.6,0,0,1-2.008-.782,2.933,2.933,0,0,1-.7-2.057,2.68,2.68,0,0,1,.929-2.157,3.989,3.989,0,0,1,2.609-.752h.52v-.271a1.3,1.3,0,0,0-.154-.706.358.358,0,0,0-.335-.151.3.3,0,0,0-.274.106.85.85,0,0,0-.118.5v.406l-2.744-.01-.107-.331-.018-.1a2.566,2.566,0,0,1,.926-2.111,3.613,3.613,0,0,1,2.47-.838,3.351,3.351,0,0,1,2.356.844,3.125,3.125,0,0,1,.927,2.4v3.336a6.432,6.432,0,0,0,.077,1.018,5.987,5.987,0,0,0,.24.957l.182.535h-2.932l-.108-.24c-.049-.111-.094-.228-.134-.349a3.038,3.038,0,0,1-.253.254A1.964,1.964,0,0,1,537.364,3972.234Zm.826-3.735c-.29,0-.393.1-.446.174a1.09,1.09,0,0,0-.171.639.7.7,0,0,0,.119.435.246.246,0,0,0,.221.106.789.789,0,0,0,.5-.173.919.919,0,0,0,.3-.38v-.8Z"/>
          <path id="Trazado_10324" data-name="Trazado 10324" d="M538.356,3963.39a2.942,2.942,0,0,1,2.081.736,2.723,2.723,0,0,1,.8,2.1v3.337a6.675,6.675,0,0,0,.083,1.082,6.35,6.35,0,0,0,.255,1.022h-2.1a3.663,3.663,0,0,1-.2-.586,4.925,4.925,0,0,1-.117-.647,2.864,2.864,0,0,1-.71,1,1.568,1.568,0,0,1-1.078.391,2.2,2.2,0,0,1-1.709-.65,2.534,2.534,0,0,1-.6-1.785,2.277,2.277,0,0,1,.785-1.845,3.591,3.591,0,0,1,2.349-.657h.924v-.677a1.633,1.633,0,0,0-.226-.935.758.758,0,0,0-.668-.327.7.7,0,0,0-.594.263,1.211,1.211,0,0,0-.2.752l-2.044-.008-.015-.045a2.167,2.167,0,0,1,.789-1.789,3.2,3.2,0,0,1,2.2-.736m-.444,6.868a1.185,1.185,0,0,0,.752-.259,1.3,1.3,0,0,0,.451-.628v-1.277h-.924a.885.885,0,0,0-.778.346,1.471,1.471,0,0,0-.244.871,1.094,1.094,0,0,0,.2.685.654.654,0,0,0,.541.262m.444-7.678a4,4,0,0,0-2.738.939,2.987,2.987,0,0,0-1.062,2.43l0,.114.035.107.184.552.6.048h.151c-.071.05-.14.1-.206.158a3.058,3.058,0,0,0-1.075,2.466,3.326,3.326,0,0,0,.811,2.333,2.989,2.989,0,0,0,2.306.912,2.373,2.373,0,0,0,1.445-.456l.133.3h3.76l-.363-1.07a5.661,5.661,0,0,1-.223-.891,5.975,5.975,0,0,1-.072-.953v-3.337a3.507,3.507,0,0,0-1.056-2.7,3.741,3.741,0,0,0-2.632-.952Zm-.122,3.5v-.114a.941.941,0,0,1,.018-.2h.008c-.014.006.028.094.041.316Zm-.161,2.831a.836.836,0,0,1,.118-.009h.114v.3a.566.566,0,0,1-.141.153.375.375,0,0,1-.174.081.877.877,0,0,1,.081-.53Z" fill="#fff"/>
        </g>
        <g id="Grupo_29042" data-name="Grupo 29042">
          <path id="Trazado_10325" data-name="Trazado 10325" d="M546.285,3972.076v-5.343a2.3,2.3,0,0,0-.167-1.091.325.325,0,0,0-.323-.179.832.832,0,0,0-.429.109.993.993,0,0,0-.278.246v6.258h-2.929v-8.941h2.756l.039.488a2.582,2.582,0,0,1,.3-.23,2.357,2.357,0,0,1,1.343-.409,2.3,2.3,0,0,1,1.954.974,4.669,4.669,0,0,1,.667,2.775v5.343Z"/>
          <path id="Trazado_10326" data-name="Trazado 10326" d="M546.592,3963.39a1.9,1.9,0,0,1,1.627.807,4.343,4.343,0,0,1,.59,2.536v4.938H546.69v-4.938a2.735,2.735,0,0,0-.222-1.295.729.729,0,0,0-.673-.38,1.23,1.23,0,0,0-.634.165,1.427,1.427,0,0,0-.478.466v5.982h-2.119v-8.131h1.976l.091,1.135a2.764,2.764,0,0,1,.845-.947,1.949,1.949,0,0,1,1.116-.338m0-.81a2.766,2.766,0,0,0-1.291.31l-.012-.16h-3.535v9.751h3.739v-6.5a.435.435,0,0,1,.076-.054.407.407,0,0,1,.209-.055,2.447,2.447,0,0,1,.1.865v5.748h3.739v-5.748a5.038,5.038,0,0,0-.746-3.014,2.72,2.72,0,0,0-2.281-1.139Z" fill="#fff"/>
        </g>
        <g id="Grupo_29043" data-name="Grupo 29043">
          <path id="Trazado_10327" data-name="Trazado 10327" d="M552.679,3972.234a2.391,2.391,0,0,1-1.894-.769,3.369,3.369,0,0,1-.653-2.259v-3.751h-.984v-2.32h.984v-2.022h2.929v2.022h1.105v2.32h-1.105v3.736a.964.964,0,0,0,.079.506.71.71,0,0,0,.2.037.279.279,0,0,0,.053,0,1.991,1.991,0,0,0,.2-.052l.473-.151.251,2.376-.3.106a4.2,4.2,0,0,1-.636.171A4,4,0,0,1,552.679,3972.234Z"/>
          <path id="Trazado_10328" data-name="Trazado 10328" d="M552.656,3961.519v2.021h1.1v1.51h-1.1v4.141a1.336,1.336,0,0,0,.151.736.473.473,0,0,0,.413.219,1.4,1.4,0,0,0,.248-.019,2.32,2.32,0,0,0,.24-.064l.166,1.563a3.791,3.791,0,0,1-.575.154,3.523,3.523,0,0,1-.62.049,2,2,0,0,1-1.59-.631,2.981,2.981,0,0,1-.552-1.992v-4.156h-.984v-1.51h.984v-2.021h2.119m.81-.81h-3.739v2.021h-.984v3.13h.984v3.346a3.7,3.7,0,0,0,.752,2.525,2.782,2.782,0,0,0,2.2.908,4.466,4.466,0,0,0,.761-.061,4.738,4.738,0,0,0,.7-.188l.6-.213-.067-.636-.165-1.563-.1-.986-.942.3c0-.029,0-.061,0-.1v-3.331h1.1v-3.13h-1.1v-2.021Z" fill="#fff"/>
        </g>
        <g id="Grupo_29044" data-name="Grupo 29044">
          <path id="Trazado_10329" data-name="Trazado 10329" d="M558.059,3972.234a3.405,3.405,0,0,1-2.811-1.265,4.865,4.865,0,0,1-.975-3.115v-.309a5.343,5.343,0,0,1,.931-3.238,3.21,3.21,0,0,1,2.728-1.323,3.02,3.02,0,0,1,2.521,1.142,4.652,4.652,0,0,1,.852,2.924v1.561h-4.056a2.056,2.056,0,0,0,.294.8.818.818,0,0,0,.764.355,2.853,2.853,0,0,0,.922-.125,3.88,3.88,0,0,0,.827-.419l.408-.265.844,2.035-.21.191a3.907,3.907,0,0,1-1.31.75A4.988,4.988,0,0,1,558.059,3972.234Zm.357-5.83a1.949,1.949,0,0,0-.159-.759.309.309,0,0,0-.325-.19.446.446,0,0,0-.439.261,2.269,2.269,0,0,0-.222.688Z"/>
          <path id="Trazado_10330" data-name="Trazado 10330" d="M557.932,3963.39a2.623,2.623,0,0,1,2.2.985,4.242,4.242,0,0,1,.767,2.675v1.156h-4.1a2.851,2.851,0,0,0,.41,1.436,1.229,1.229,0,0,0,1.1.534,3.264,3.264,0,0,0,1.056-.147,4.329,4.329,0,0,0,.913-.462l.549,1.322a3.522,3.522,0,0,1-1.177.67,4.6,4.6,0,0,1-1.589.27,3.01,3.01,0,0,1-2.495-1.112,4.453,4.453,0,0,1-.886-2.863v-.309a4.929,4.929,0,0,1,.852-3,2.811,2.811,0,0,1,2.4-1.157m-1.12,3.419h2.014v-.188a2.628,2.628,0,0,0-.207-1.157.711.711,0,0,0-.687-.414.851.851,0,0,0-.793.47,3.246,3.246,0,0,0-.327,1.289m1.12-4.229a3.641,3.641,0,0,0-3.054,1.486,5.741,5.741,0,0,0-1.01,3.479v.309a5.257,5.257,0,0,0,1.063,3.368,3.8,3.8,0,0,0,3.128,1.417,5.428,5.428,0,0,0,1.868-.32,4.32,4.32,0,0,0,1.444-.832l.42-.383-.218-.525-.549-1.322-.1-.241h.785v-1.966a5.042,5.042,0,0,0-.938-3.173,3.4,3.4,0,0,0-2.84-1.3Zm-.05,3.284.028,0a1.105,1.105,0,0,1,.045.138h-.15c.015-.034.029-.063.043-.088a.246.246,0,0,1,.033-.047Zm-.1,3.152h1.84a3.071,3.071,0,0,1-.525.247,2.5,2.5,0,0,1-.792.1c-.311,0-.383-.109-.427-.174a1.213,1.213,0,0,1-.1-.176Z" fill="#fff"/>
        </g>
        <g id="Grupo_29045" data-name="Grupo 29045">
          <path id="Trazado_10331" data-name="Trazado 10331" d="M565.124,3972.076v-11.752H568.9a4,4,0,0,1,3.138,1.42,5.232,5.232,0,0,1,1.219,3.555v1.811a5.209,5.209,0,0,1-1.22,3.555,4.013,4.013,0,0,1-3.137,1.411Zm3.779-2.464a1.107,1.107,0,0,0,.978-.62,3.544,3.544,0,0,0,.443-1.882v-1.827a3.517,3.517,0,0,0-.443-1.867,1.107,1.107,0,0,0-.978-.62h-.85v6.816Z"/>
          <path id="Trazado_10332" data-name="Trazado 10332" d="M568.9,3960.729a3.6,3.6,0,0,1,2.833,1.282,4.816,4.816,0,0,1,1.12,3.287v1.812a4.8,4.8,0,0,1-1.12,3.287,3.61,3.61,0,0,1-2.833,1.274h-3.374v-10.942H568.9m-1.255,9.289H568.9a1.508,1.508,0,0,0,1.322-.812,3.921,3.921,0,0,0,.5-2.1v-1.827a3.89,3.89,0,0,0-.5-2.081,1.507,1.507,0,0,0-1.322-.811h-1.255v7.627m1.255-10.1h-4.184v12.562H568.9a4.407,4.407,0,0,0,3.441-1.548,5.607,5.607,0,0,0,1.322-3.823V3965.3a5.619,5.619,0,0,0-1.32-3.82,4.4,4.4,0,0,0-3.443-1.559Zm-.445,3.282h.445c.182,0,.4.05.634.428a3.135,3.135,0,0,1,.382,1.654v1.827a3.167,3.167,0,0,1-.382,1.669c-.234.378-.452.429-.634.429h-.445V3963.2Z" fill="#fff"/>
        </g>
        <g id="Grupo_29046" data-name="Grupo 29046">
          <path id="Trazado_10333" data-name="Trazado 10333" d="M573.9,3972.076v-8.941h2.929v8.941Zm0-10.107v-2.426h2.929v2.426Z"/>
          <path id="Trazado_10334" data-name="Trazado 10334" d="M576.425,3959.948v1.615h-2.119v-1.615h2.119m0,3.592v8.131h-2.119v-8.131h2.119m.81-4.4H573.5v3.235h3.739v-3.235Zm0,3.592H573.5v9.751h3.739v-9.751Z" fill="#fff"/>
        </g>
        <g id="Grupo_29047" data-name="Grupo 29047">
          <path id="Trazado_10335" data-name="Trazado 10335" d="M580.611,3975.36a4.72,4.72,0,0,1-1.247-.18,5.734,5.734,0,0,1-1.209-.487l-.267-.145.533-2.426.472.251a3.847,3.847,0,0,0,.816.328,3.477,3.477,0,0,0,.887.106.944.944,0,0,0,.745-.251,1.134,1.134,0,0,0,.224-.627c-.031.018-.062.035-.093.051a2.317,2.317,0,0,1-1.087.254,2.65,2.65,0,0,1-2.346-1.287,5.7,5.7,0,0,1-.779-3.138v-.158a6.3,6.3,0,0,1,.773-3.3,2.633,2.633,0,0,1,2.367-1.368,2.156,2.156,0,0,1,1.212.349,2.75,2.75,0,0,1,.252.192l.06-.39h2.593v8.491a3.6,3.6,0,0,1-1.056,2.752A4.013,4.013,0,0,1,580.611,3975.36Zm.338-9.9c-.167,0-.359.054-.513.452a4.96,4.96,0,0,0-.247,1.736v.158a4.251,4.251,0,0,0,.231,1.579.513.513,0,0,0,.521.375.831.831,0,0,0,.416-.095.725.725,0,0,0,.224-.205v-3.62a.944.944,0,0,0-.256-.275A.654.654,0,0,0,580.949,3965.463Z"/>
          <path id="Trazado_10336" data-name="Trazado 10336" d="M580.4,3963.39a1.753,1.753,0,0,1,.989.281,2.525,2.525,0,0,1,.74.8l.142-.932h1.842v8.086a3.206,3.206,0,0,1-.929,2.457,3.609,3.609,0,0,1-2.573.872,4.253,4.253,0,0,1-1.139-.166,5.26,5.26,0,0,1-1.123-.451l.353-1.607a4.3,4.3,0,0,0,.9.361,3.9,3.9,0,0,0,.992.12,1.328,1.328,0,0,0,1.048-.388,1.784,1.784,0,0,0,.342-1.205v-.6a2.191,2.191,0,0,1-.7.6,1.91,1.91,0,0,1-.9.207,2.261,2.261,0,0,1-2.006-1.1,5.3,5.3,0,0,1-.714-2.92v-.157a5.886,5.886,0,0,1,.714-3.089,2.246,2.246,0,0,1,2.021-1.172m.541,6.778a1.215,1.215,0,0,0,.62-.15,1.173,1.173,0,0,0,.425-.436v-3.848a1.4,1.4,0,0,0-.432-.5,1.055,1.055,0,0,0-.605-.176.936.936,0,0,0-.891.71,5.328,5.328,0,0,0-.274,1.883v.157a4.606,4.606,0,0,0,.263,1.737.913.913,0,0,0,.894.623m-.541-7.588a3.053,3.053,0,0,0-2.713,1.561,6.692,6.692,0,0,0-.832,3.51v.157a6.107,6.107,0,0,0,.844,3.361,3.61,3.61,0,0,0,.4.515l-.192.873-.353,1.607-.131.595.535.291a6.111,6.111,0,0,0,1.294.52,5.1,5.1,0,0,0,1.355.195,4.407,4.407,0,0,0,3.128-1.091,4,4,0,0,0,1.184-3.048v-8.9h-3.347l-.016.108a2.606,2.606,0,0,0-1.16-.258Zm.541,6.778c-.077,0-.093,0-.148-.128a3.767,3.767,0,0,1-.2-1.422v-.157a4.587,4.587,0,0,1,.22-1.591.453.453,0,0,1,.11-.192h0a.283.283,0,0,1,.176.038.423.423,0,0,1,.075.068v3.329l-.021.014a.445.445,0,0,1-.214.041Z" fill="#fff"/>
        </g>
        <g id="Grupo_29048" data-name="Grupo 29048">
          <path id="Trazado_10337" data-name="Trazado 10337" d="M585.21,3972.076v-8.941h2.929v8.941Zm0-10.107v-2.426h2.929v2.426Z"/>
          <path id="Trazado_10338" data-name="Trazado 10338" d="M587.735,3959.948v1.615h-2.12v-1.615h2.12m0,3.592v8.131h-2.12v-8.131h2.12m.81-4.4H584.8v3.235h3.74v-3.235Zm0,3.592H584.8v9.751h3.74v-9.751Z" fill="#fff"/>
        </g>
        <g id="Grupo_29049" data-name="Grupo 29049">
          <path id="Trazado_10339" data-name="Trazado 10339" d="M591.755,3972.234a2.392,2.392,0,0,1-1.894-.769,3.369,3.369,0,0,1-.653-2.259v-3.751h-.984v-2.32h.984v-2.022h2.929v2.022h1.1v2.32h-1.1v3.736a.978.978,0,0,0,.079.506.711.711,0,0,0,.2.037.271.271,0,0,0,.053,0c.052-.01.117-.028.2-.052l.472-.151.251,2.376-.3.106a4.2,4.2,0,0,1-.636.171A4,4,0,0,1,591.755,3972.234Z"/>
          <path id="Trazado_10340" data-name="Trazado 10340" d="M591.732,3961.519v2.021h1.1v1.51h-1.1v4.141a1.336,1.336,0,0,0,.151.736.473.473,0,0,0,.413.219,1.4,1.4,0,0,0,.248-.019,2.316,2.316,0,0,0,.24-.064l.166,1.563a3.789,3.789,0,0,1-.575.154,3.523,3.523,0,0,1-.62.049,2,2,0,0,1-1.59-.631,2.986,2.986,0,0,1-.552-1.992v-4.156h-.984v-1.51h.984v-2.021h2.119m.81-.81H588.8v2.021h-.984v3.13h.984v3.346a3.7,3.7,0,0,0,.753,2.525,2.778,2.778,0,0,0,2.2.908,4.466,4.466,0,0,0,.761-.061,4.781,4.781,0,0,0,.7-.188l.6-.213-.068-.636-.165-1.563-.1-.986-.942.3c0-.029,0-.061,0-.1v-3.331h1.1v-3.13h-1.1v-2.021Z" fill="#fff"/>
        </g>
        <g id="Grupo_29050" data-name="Grupo 29050">
          <path id="Trazado_10341" data-name="Trazado 10341" d="M595.978,3972.234a2.6,2.6,0,0,1-2.008-.782,2.933,2.933,0,0,1-.7-2.057,2.679,2.679,0,0,1,.928-2.157,3.99,3.99,0,0,1,2.61-.752h.519v-.271a1.287,1.287,0,0,0-.154-.706.355.355,0,0,0-.335-.151.3.3,0,0,0-.273.106.842.842,0,0,0-.119.5v.406l-2.743-.01-.108-.331-.017-.1a2.565,2.565,0,0,1,.925-2.111,3.613,3.613,0,0,1,2.47-.838,3.356,3.356,0,0,1,2.357.844,3.128,3.128,0,0,1,.926,2.4v3.336a6.315,6.315,0,0,0,.078,1.018,5.874,5.874,0,0,0,.239.957l.182.535H597.82l-.108-.24c-.049-.111-.094-.228-.134-.349a2.887,2.887,0,0,1-.253.254A1.964,1.964,0,0,1,595.978,3972.234Zm.827-3.735c-.29,0-.394.1-.447.174a1.091,1.091,0,0,0-.171.639.7.7,0,0,0,.119.435.248.248,0,0,0,.221.106.789.789,0,0,0,.5-.173.918.918,0,0,0,.295-.38v-.8Z"/>
          <path id="Trazado_10342" data-name="Trazado 10342" d="M596.97,3963.39a2.945,2.945,0,0,1,2.082.736,2.726,2.726,0,0,1,.8,2.1v3.337a6.675,6.675,0,0,0,.083,1.082,6.356,6.356,0,0,0,.255,1.022h-2.1a3.663,3.663,0,0,1-.2-.586,5.079,5.079,0,0,1-.116-.647,2.881,2.881,0,0,1-.711,1,1.565,1.565,0,0,1-1.078.391,2.206,2.206,0,0,1-1.709-.65,2.535,2.535,0,0,1-.6-1.785,2.277,2.277,0,0,1,.785-1.845,3.593,3.593,0,0,1,2.349-.657h.924v-.677a1.642,1.642,0,0,0-.225-.935.761.761,0,0,0-.669-.327.7.7,0,0,0-.594.263,1.211,1.211,0,0,0-.2.752l-2.044-.008-.015-.045a2.167,2.167,0,0,1,.789-1.789,3.2,3.2,0,0,1,2.2-.736m-.443,6.868a1.185,1.185,0,0,0,.751-.259,1.3,1.3,0,0,0,.451-.628v-1.277H596.8a.885.885,0,0,0-.778.346,1.471,1.471,0,0,0-.244.871,1.088,1.088,0,0,0,.2.685.651.651,0,0,0,.541.262m.443-7.678a4,4,0,0,0-2.738.939,2.99,2.99,0,0,0-1.062,2.43l.005.114.036.107.183.552.6.048h.151c-.071.05-.14.1-.206.158a3.061,3.061,0,0,0-1.075,2.466,3.322,3.322,0,0,0,.812,2.333,2.986,2.986,0,0,0,2.305.912,2.372,2.372,0,0,0,1.445-.456l.133.3h3.76l-.362-1.07a5.454,5.454,0,0,1-.223-.891,5.86,5.86,0,0,1-.073-.953v-3.337a3.507,3.507,0,0,0-1.056-2.7,3.739,3.739,0,0,0-2.632-.952Zm-.122,3.5v-.114a.941.941,0,0,1,.018-.2h.008c-.014.006.028.094.041.316Zm-.161,2.831a.855.855,0,0,1,.118-.009h.114v.3a.558.558,0,0,1-.14.153.379.379,0,0,1-.174.081.623.623,0,0,1-.012-.131.715.715,0,0,1,.092-.4Z" fill="#fff"/>
        </g>
        <g id="Grupo_29051" data-name="Grupo 29051">
          <rect id="Rectángulo_5023" data-name="Rectángulo 5023" width="2.929" height="12.533" transform="translate(600.909 3959.543)"/>
          <path id="Trazado_10343" data-name="Trazado 10343" d="M603.433,3959.948v11.723h-2.119v-11.723h2.119m.81-.81H600.5v13.343h3.739v-13.343Z" fill="#fff"/>
        </g>
      </g>
    </g>
    <text id="Creación_de_capacidades_internas_necesarias_para_transformar_digital_e_integralmente_toda_la_organización." data-name="Creación de capacidades internas necesarias para transformar digital e integralmente toda la organización." transform="translate(500.794 4065.938)" font-size="12.96" font-family="Roboto-Medium, Roboto" font-weight="500"><tspan x="29.953" y="12">Creación de capacidades internas necesarias para </tspan><tspan x="12.531" y="27.552">transformar digital e integralmente toda la organización.</tspan></text>
    <text id="Inversión_en_iniciativas_tecnológicas_para_cambiar_la_gestión_operativa_de_la_empresa." data-name="Inversión en iniciativas tecnológicas para
cambiar la gestión operativa de la empresa." transform="translate(351.149 4007.669) rotate(-90)" font-size="12.96" font-family="Roboto-Medium, Roboto" font-weight="500"><tspan x="56.18" y="12">Inversión en iniciativas tecnológicas para</tspan><tspan x="49.263" y="27.552">cambiar la gestión operativa de la empresa.</tspan></text>
    <g transform="matrix(1, 0, 0, 1, 351.15, 3616.57)" filter="url(#Gestión_de_la_digitalización)">
      <text id="Gestión_de_la_digitalización-2" data-name="Gestión de la digitalización" transform="translate(117.25 411.33)" fill="#fff" font-size="17.01" font-family="Roboto-Black, Roboto" font-weight="800" letter-spacing="0.028em"><tspan x="114.602" y="16">Gestión de la digitalización</tspan></text>
    </g>
    <g transform="matrix(1, 0, 0, 1, 351.15, 3616.57)" filter="url(#Implementación_digital)">
      <text id="Implementación_digital-2" data-name="Implementación digital" transform="translate(51.76 425.35) rotate(-90)" fill="#fff" font-size="17.01" font-family="Roboto-Black, Roboto" font-weight="800" letter-spacing="0.028em"><tspan x="106.143" y="16">Implementación digital</tspan></text>
    </g>
  </g>
</svg>
