<svg xmlns="http://www.w3.org/2000/svg" width="40.766" height="51.29" viewBox="0 0 40.766 51.29">
  <g id="Grupo_29137" data-name="Grupo 29137" transform="translate(-199.98 -3743)">
    <rect id="Line" width="13.177" height="2" transform="translate(199.98 3743)" fill="#00bbae"/>
    <g id="Grupo_29056" data-name="Grupo 29056" transform="translate(200.5 3758)">
      <path id="Trazado_10344" data-name="Trazado 10344" d="M259.979,4286.852h-9.514a2.668,2.668,0,0,0-2.665,2.665v1.225a.781.781,0,0,0,1.562,0v-1.225a1.1,1.1,0,0,1,1.1-1.1h9.514a1.1,1.1,0,0,1,1.1,1.1v1.225a.781.781,0,0,0,1.562,0v-1.225a2.667,2.667,0,0,0-2.665-2.665Zm0,0" transform="translate(-235.177 -4286.852)" fill="#00bbae" stroke="#00bbae" stroke-width="0.5"/>
      <path id="Trazado_10345" data-name="Trazado 10345" d="M270.545,4293.571H238.176a3.818,3.818,0,0,0-3.814,3.813v6.938a.783.783,0,0,0,.56.75l.476.14v16.365a1.725,1.725,0,0,0,1.723,1.724H271.6a1.725,1.725,0,0,0,1.724-1.724v-16.249l.472-.136a.781.781,0,0,0,.565-.75v-7.056a3.818,3.818,0,0,0-3.814-3.813Zm-29.212,28.167h-4.212a.162.162,0,0,1-.161-.162v-4.211h2.247a2.128,2.128,0,0,1,2.126,2.126Zm30.427-.162a.162.162,0,0,1-.162.162h-4.211v-2.247a2.128,2.128,0,0,1,2.126-2.126h2.247Zm0-5.773h-2.247a3.692,3.692,0,0,0-3.688,3.688v2.247H242.9v-2.247a3.692,3.692,0,0,0-3.688-3.688H236.96v-10.13l13.793,4.068v2.51a.781.781,0,0,0,.782.782h5.651a.781.781,0,0,0,.782-.782v-2.489l13.793-3.983Zm-19.445-4.333v-3.808h4.09v3.808Zm20.481-7.617-14.829,4.283v-1.253a.781.781,0,0,0-.782-.782h-5.651a.781.781,0,0,0-.782.782v1.229l-14.829-4.373v-6.354a2.254,2.254,0,0,1,2.252-2.25h3.157v2.7a.781.781,0,1,0,1.562,0v-2.7h22.647v2.7a.781.781,0,1,0,1.562,0v-2.7h3.44a2.254,2.254,0,0,1,2.252,2.25Zm0,0" transform="translate(-234.362 -4287.259)" fill="#00bbae" stroke="#00bbae" stroke-width="0.5"/>
      <path id="Trazado_10346" data-name="Trazado 10346" d="M269.117,4301.271a.781.781,0,1,1-.781-.782.781.781,0,0,1,.781.782Zm0,0" transform="translate(-236.375 -4287.679)" fill="#00bbae" stroke="#00bbae" stroke-width="0.5"/>
      <path id="Trazado_10347" data-name="Trazado 10347" d="M243.344,4301.271a.781.781,0,1,1-.781-.782.781.781,0,0,1,.781.782Zm0,0" transform="translate(-234.812 -4287.679)" fill="#00bbae" stroke="#00bbae" stroke-width="0.5"/>
    </g>
  </g>
</svg>
